<?xml version="1.0" encoding="UTF-8" standalone="no"?>
<!-- Created with Inkscape (http://www.inkscape.org/) -->

<svg
   width="180mm"
   height="150mm"
   viewBox="0 0 180 149.99999"
   version="1.1"
   id="svg1"
   sodipodi:docname="box_slice.svg"
   inkscape:version="1.3.2 (091e20ef0f, 2023-11-25, custom)"
   xmlns:inkscape="http://www.inkscape.org/namespaces/inkscape"
   xmlns:sodipodi="http://sodipodi.sourceforge.net/DTD/sodipodi-0.dtd"
   xmlns="http://www.w3.org/2000/svg"
   xmlns:svg="http://www.w3.org/2000/svg">
  <sodipodi:namedview
     id="namedview1"
     pagecolor="#ffffff"
     bordercolor="#000000"
     borderopacity="0.25"
     inkscape:showpageshadow="2"
     inkscape:pageopacity="0.0"
     inkscape:pagecheckerboard="0"
     inkscape:deskcolor="#d1d1d1"
     inkscape:document-units="mm"
     inkscape:zoom="2"
     inkscape:cx="419"
     inkscape:cy="315.25"
     inkscape:window-width="1916"
     inkscape:window-height="1029"
     inkscape:window-x="0"
     inkscape:window-y="0"
     inkscape:window-maximized="1"
     inkscape:current-layer="g40" />
  <defs
     id="defs1">
    <marker
       style="overflow:visible"
       id="ArrowWide"
       refX="0"
       refY="0"
       orient="auto-start-reverse"
       inkscape:stockid="Wide arrow"
       markerWidth="1"
       markerHeight="1"
       viewBox="0 0 1 1"
       inkscape:isstock="true"
       inkscape:collect="always"
       preserveAspectRatio="xMidYMid">
      <path
         style="fill:none;stroke:context-stroke;stroke-width:1;stroke-linecap:butt"
         d="M 3,-3 0,0 3,3"
         transform="rotate(180,0.125,0)"
         sodipodi:nodetypes="ccc"
         id="path1" />
    </marker>
  </defs>
  <g
     inkscape:label="Layer 1"
     inkscape:groupmode="layer"
     id="layer1"
     transform="translate(-27.76983,-32.230075)">
    <g
       id="g40"
       transform="translate(14.06872,11.186236)">
      <g
         id="g14">
        <rect
           style="fill:none;stroke:#000000;stroke-width:2.64583;stroke-linecap:round;stroke-linejoin:round"
           id="rect1"
           width="33.783169"
           height="30.851425"
           x="72.658188"
           y="33.55299" />
        <text
           xml:space="preserve"
           style="font-size:11.2889px;line-height:1;font-family:'Libertinus Mono';-inkscape-font-specification:'Libertinus Mono';fill:#000000;stroke:none;stroke-width:2.64583;stroke-linecap:round;stroke-linejoin:round"
           x="85.920944"
           y="52.700264"
           id="text1"><tspan
             sodipodi:role="line"
             id="tspan1"
             style="font-size:11.2889px;fill:#000000;stroke:none;stroke-width:2.64583"
             x="85.920944"
             y="52.700264">?</tspan></text>
        <path
           style="fill:none;stroke:#000000;stroke-width:2.64583;stroke-linecap:round;stroke-linejoin:round"
           d="m 44.986748,35.892492 c 0.156279,0.0382 0.307993,0.11107 0.468834,0.114605 3.345479,0.07353 -1.916687,-0.349165 2.402107,-0.08216 0.765807,0.04734 1.525344,0.171007 2.290508,0.227837 0.813398,0.06041 1.632604,0.03863 2.443784,0.123791 3.607726,0.378753 0.39954,0.31278 3.283048,0.429071 0.949434,0.03829 1.917528,0 2.86743,0 1.568106,0 3.136209,0 4.704313,0 0.754912,0 1.509826,0 2.264738,0 0.430294,0 0.861436,0.02695 1.290889,0 0.142666,-0.009 0.280088,-0.06075 0.422433,-0.07385 0.366739,-0.03375 0.781114,0 1.146324,0 1.151098,0 2.3022,0 3.453299,0 0.01498,0 -0.02993,0 -0.04489,0 -0.06087,0 -0.121732,0 -0.182597,0"
           id="path2" />
        <path
           style="fill:none;stroke:#000000;stroke-width:2.64583;stroke-linecap:round;stroke-linejoin:round"
           d="m 47.236413,60.011854 c 0.16084,-0.02074 0.3205,-0.05522 0.482521,-0.0622 0.319677,-0.01379 0.639947,0 0.959919,0 0.959937,0 1.920118,-0.02175 2.879807,0 1.832025,0.04153 3.040898,0.157496 4.858866,0.362093 0.580549,0.06534 1.156772,0.167169 1.738029,0.225877 0.50631,0.05114 1.015429,0.069 1.523146,0.103508 1.061741,0.1255 2.122196,0.262395 3.185223,0.376502 0.149051,0.01601 2.164969,0.171492 2.376633,0.181531 0.635392,0.03014 1.275244,-0.03185 1.910546,0 0.744789,0.03734 1.035005,0.128333 1.805995,0.237162 0.206206,0.02326 0.412414,0.04651 0.61862,0.06976 0.145142,0 0.291005,-0.01445 0.435427,0 0.06524,0.0065 0.122317,0.04934 0.186611,0.0622 0.139737,0.02795 0.294709,-0.02344 0.435428,0 0.349056,0.05818 0.139615,0.05045 0.435427,0.124407 0.09705,0.02426 0.211296,-0.01963 0.309488,0 0.06429,0.01286 0.121444,0.05496 0.186611,0.0622 0.280765,0.0312 0.587065,0 0.870852,0"
           id="path3" />
        <path
           style="fill:none;stroke:#000000;stroke-width:2.64583;stroke-linecap:round;stroke-linejoin:round"
           d="m 106.77924,35.526848 c 1.7944,-0.308266 3.63312,-0.02422 5.44347,-0.124408 0.37196,-0.02059 0.7371,-0.115809 1.1089,-0.139134 0.3689,-0.02314 0.73965,0.01736 1.10887,0 3.18985,-0.149999 2.52134,-0.384004 6.71657,-0.155886 1.04768,0.05697 2.07393,0.336471 3.12023,0.414921 0.80228,0.06015 1.60991,-0.03661 2.41361,0 0.4254,0.01938 0.85034,0.07285 1.2679,0.156364 0.8862,0.177239 -0.21134,0.09422 0.87086,0.248815 0.33097,0.04728 0.66428,0.07713 0.99526,0.124408 0.69586,0.09941 1.4479,-0.132415 2.13748,0 0.52488,0.10079 1.00563,0.386718 1.53417,0.466152 0.5167,0.07766 1.04501,0 1.56751,0 0.70248,0 1.40496,0 2.10745,0 0.98368,0 1.93211,0.208145 2.92023,0.139139 0.42773,-0.02987 1.26134,-0.287812 1.73187,-0.130972 0.25015,0.08338 0.3,0.122847 0.54686,0.122847"
           id="path4" />
        <path
           style="fill:none;stroke:#000000;stroke-width:2.64583;stroke-linecap:round;stroke-linejoin:round"
           d="m 105.56469,61.889152 c 2.36463,0.344945 4.75486,0.255405 7.13604,0.255405 0.62156,0 1.24515,0.05031 1.86467,0 0.17134,-0.01392 0.32887,-0.109427 0.4999,-0.126686 0.50274,-0.05072 1.01169,-0.03342 1.51588,0 3.07305,0.203735 0.49163,0.152805 4.56366,0.660361 2.09696,0.261376 3.50318,0.190719 5.63463,0.190719 1.01408,0 2.03014,0.0636 3.04222,0 0.31747,-0.01995 0.62796,-0.108386 0.94525,-0.13099 0.2971,-0.02117 0.59626,0.01818 0.89356,0 0.50739,-0.03104 1.0101,-0.123121 1.51785,-0.147529 0.75426,-0.03626 1.79112,0.133295 2.58757,0 0.48214,-0.08069 1.02771,-0.146446 1.50183,-0.251441 0.2577,-0.05707 0.49289,-0.197054 0.7517,-0.248817 0.333,-0.0666 0.78652,0 1.11967,0 0.47198,0 1.02291,-0.06714 1.49289,0 0.16926,0.02418 0.327,0.113456 0.49763,0.124407 0.94149,0.06043 1.93572,0 2.8815,0"
           id="path5" />
      </g>
      <path
         style="fill:none;stroke:#000000;stroke-width:1;stroke-linecap:round;stroke-linejoin:round;stroke-dasharray:none"
         d="m 28.26983,107.10992 c 0.459683,-0.0487 0.909364,0.0457 1.364004,0.0741 0.204089,0.0127 0.409347,-0.0124 0.613457,0 0.971139,0.0589 2.096428,0.36499 3.02048,0.70874 0.59559,0.22156 1.150681,0.54104 1.739285,0.78054 0.28931,0.11772 1.875727,0.67758 2.124778,0.74007 0.369124,0.0926 0.754954,0.10386 1.126174,0.1877 0.295181,0.0667 0.573838,0.19591 0.868949,0.26289 0.350559,0.0796 0.714734,0.0908 1.063995,0.17585 0.443442,0.10802 0.868148,0.2834 1.308825,0.4022 0.42046,0.11335 0.857673,0.1627 1.272942,0.2938 0.746472,0.23565 1.43202,0.64353 2.181559,0.86923 0.273653,0.0824 0.568142,0.0823 0.840724,0.16815 0.253439,0.0798 0.478059,0.23431 0.727487,0.32593 0.279969,0.10283 0.57712,0.15397 0.857319,0.25617 0.383082,0.13973 0.748054,0.32579 1.129961,0.4687 0.378106,0.14148 0.772737,0.23675 1.148652,0.38395 0.903417,0.35377 0.877395,0.46073 1.663835,0.70975 0.19526,0.0618 0.404169,0.0775 0.596101,0.14903 0.192119,0.0716 0.359018,0.20016 0.548883,0.27751 0.04084,0.0166 0.08973,-0.0115 0.132292,0 2.071949,0.56084 -0.200845,0.10749 2.180256,0.38818 1.002589,0.11819 0.987304,0.21618 1.883122,0.27693 0.644451,0.0437 1.318077,0 1.963137,0 1.025924,0 2.272046,0.038 3.298828,-0.10555 0.438462,-0.0613 0.862419,-0.20072 1.294577,-0.29688 0.459208,-0.10218 0.919649,-0.19875 1.379474,-0.29814 1.026887,-0.22195 2.91229,-0.62446 3.793013,-0.84403 0.488974,-0.12191 0.968092,-0.28047 1.453658,-0.41531 0.523534,-0.14539 1.052775,-0.27043 1.573559,-0.42538 0.402495,-0.11975 0.7889,-0.29206 1.19515,-0.39838 0.339846,-0.0889 0.698844,-0.092 1.037349,-0.18587 0.435396,-0.12079 1.162391,-0.50257 1.589021,-0.66837 1.377948,-0.53548 0.0089,0.0879 1.672386,-0.49457 1.448687,-0.50731 0.808213,-0.46672 2.283688,-0.85753 0.331107,-0.0877 0.675037,-0.11766 1.010023,-0.18912 0.514776,-0.10983 1.025504,-0.23784 1.53874,-0.35465 0.244007,-0.0555 0.490871,-0.099 0.732965,-0.16239 0.277561,-0.0726 0.543599,-0.18947 0.825023,-0.24529 0.272733,-0.0541 0.555609,-0.038 0.830003,-0.083 0.208101,-0.0341 0.405416,-0.12065 0.613723,-0.15343 0.217164,-0.0342 1.894911,-0.16814 2.021104,-0.17943 0.28434,-0.0254 0.567328,-0.0677 0.852395,-0.0829 0.234064,-0.0125 0.470829,0.0308 0.703188,0 0.564166,-0.0748 0.127511,-0.14036 0.616387,-0.14036"
         id="path18" />
      <path
         style="fill:none;stroke:#000000;stroke-width:1;stroke-linecap:round;stroke-linejoin:round;stroke-dasharray:none"
         d="m 43.017385,116.06153 c 0.165123,0.0111 0.329903,0.0303 0.495376,0.0334 1.780321,0.0332 3.565306,0 5.345817,0 3.66083,0 7.321661,0 10.982489,0 1.058071,0 2.116142,0 3.174214,0 0.47685,0 0.954606,0.0294 1.430549,0 2.257531,-0.13945 -1.269741,-0.009 1.277614,-0.15239 0.234133,-0.0132 0.469488,0.015 0.703514,0 0.309851,-0.0198 0.610246,-0.12568 0.920147,-0.14467 0.385231,-0.0236 0.771906,0 1.157859,0 0.371314,0 0.784852,-0.0412 1.155991,0 0.111739,0.0124 0.21899,0.0537 0.330729,0.0662 0.322339,0.0358 0.666806,0 0.992188,0 0.747998,0 1.495996,0 2.243994,0"
         id="path19" />
      <path
         style="fill:none;stroke:#000000;stroke-width:1;stroke-linecap:round;stroke-linejoin:round;stroke-dasharray:none"
         d="m 46.546865,127.73304 c 4.783236,0 9.566471,0 14.349706,0 1.150578,0 2.301754,0.0371 3.451731,0 0.309366,-0.01 0.615844,-0.0651 0.92483,-0.0834 0.161716,-0.01 0.32427,0.009 0.485994,0 1.139471,-0.0665 2.286431,-0.18555 3.424351,-0.27163 0.797804,-0.0603 1.657104,-0.11218 2.441224,-0.29341 0.161829,-0.0374 0.315105,-0.11111 0.479274,-0.13636 0.134231,-0.0206 0.273417,0.022 0.407426,0 0.922901,-0.15179 -0.07797,-0.11788 0.727604,-0.19843 0.241332,-0.0241 0.486066,0.022 0.727605,0 0.400277,-0.0364 0.779827,-0.13229 1.185822,-0.13229"
         id="path20" />
      <path
         style="fill:none;stroke:#000000;stroke-width:1;stroke-linecap:round;stroke-linejoin:round;stroke-dasharray:none"
         d="m 58.323078,126.96042 c 0,-2.7501 0,-5.50021 0,-8.25031 0,-0.27132 0.05335,-0.59314 0,-0.8599 -0.01368,-0.0684 -0.04905,-0.13084 -0.06615,-0.19844 -0.05103,-0.2017 -0.02125,-0.61101 0.06531,-0.78414"
         id="path21" />
      <path
         style="fill:none;stroke:#000000;stroke-width:1;stroke-linecap:round;stroke-linejoin:round;stroke-dasharray:none"
         d="m 31.667776,136.70729 c 1.760217,0 3.520434,0 5.280651,0 0.745829,0 1.511658,0.0491 2.251795,-0.074 1.555372,-0.25855 -0.132836,-0.0495 1.548779,-0.4102 1.282803,-0.27514 0.188431,0.11754 1.238541,-0.22906 0.344003,-0.11354 0.690901,-0.22124 1.024779,-0.36179 1.483788,-0.62464 -0.427977,0.0695 1.408228,-0.66193 0.607725,-0.24207 1.288997,-0.37109 1.862379,-0.70059 0.184475,-0.10601 0.32481,-0.28339 0.517443,-0.37373 0.186163,-0.0873 0.406148,-0.0768 0.598442,-0.14961 0.122854,-0.0465 0.222237,-0.14037 0.336852,-0.20456 0.227478,-0.12741 0.438954,-0.26338 0.661458,-0.39688 0.09453,-0.0567 0.168868,-0.14374 0.264583,-0.19844 1.265532,-0.63276 -0.15486,0.0979 0.595313,-0.33073 0.08561,-0.0489 0.173064,-0.0956 0.264583,-0.13229 0.02021,-0.008 0.04794,0.0131 0.06532,0 0.07423,-0.056 0.116084,-0.15147 0.196787,-0.19761 0.07892,-0.0451 0.181025,-0.0303 0.264583,-0.0661 0.317635,-0.13613 0.112646,-0.14818 0.396875,-0.39688 0.09676,-0.0847 0.223758,-0.12712 0.330729,-0.19844 0.09173,-0.0611 0.171098,-0.14 0.264584,-0.19843 0.398224,-0.24889 0.531913,-0.2406 0.926041,-0.59532 0.232513,-0.20926 0.440129,-0.51772 0.727604,-0.66145 0.08131,-0.0407 0.188942,-0.0157 0.264584,-0.0661 0.06615,-0.0441 0.07608,-0.14222 0.132291,-0.19844 0.183021,-0.18302 0.385115,-0.24965 0.595313,-0.39687 0.117864,-0.0825 0.213976,-0.19528 0.337293,-0.26943 0.101754,-0.0612 0.222229,-0.0841 0.330729,-0.13229 0.314577,-0.13982 0.608627,-0.33626 0.927897,-0.46426 0.08169,-0.0327 0.537009,-0.12441 0.596545,-0.13291 0.04366,-0.006 0.08989,0.0121 0.132292,0 0.114168,-0.0326 0.214823,-0.10654 0.330729,-0.13229 0.0861,-0.0191 0.17693,0.01 0.264583,0 0.111739,-0.0124 0.218991,-0.0537 0.33073,-0.0661 0.17531,-0.0195 0.353859,0.0195 0.529166,0 0.111739,-0.0124 0.218861,-0.055 0.330729,-0.0661 0.285211,-0.0285 0.573265,0 0.859896,0 0.346771,0 0.713531,-0.0345 1.058334,0 0.306369,0.0306 0.706366,0.10235 0.998352,0.19968 0.09355,0.0312 0.17226,0.0977 0.264583,0.13229 0.08512,0.0319 0.181025,0.0303 0.264584,0.0661 0.07307,0.0313 0.127333,0.0967 0.198437,0.13229 0.326133,0.16307 0.07675,-0.0396 0.463021,0.1323 0.241681,0.10758 1.211815,0.71803 1.391534,0.92789 0.06461,0.0754 0.07837,0.1838 0.133516,0.26642 0.07923,0.11871 0.186889,0.21653 0.267454,0.33433 0.138465,0.20246 0.237562,0.4316 0.388562,0.62489 0.136821,0.17514 0.325144,0.30444 0.469469,0.47346 0.175686,0.20574 0.310888,0.44408 0.488378,0.64827 0.177639,0.20437 0.38262,0.38326 0.574411,0.57442 0.149693,0.14919 0.283898,0.31598 0.450037,0.4466 0.496555,0.39042 1.487655,0.9305 1.977634,1.19974 0.429334,0.23592 0.848016,0.49527 1.297228,0.69071 0.286038,0.12444 0.602941,0.16224 0.897729,0.26426 0.677158,0.23433 1.3102,0.58652 1.990119,0.81273 0.367816,0.12237 0.753933,0.18111 1.128059,0.28257 0.576439,0.15631 1.13339,0.38462 1.716471,0.51397 0.208894,0.0463 0.42835,0.0296 0.637617,0.0742 0.116125,0.0248 0.217,0.0982 0.330729,0.13229 0.194707,0.0584 0.399198,0.0788 0.595312,0.1323 0.336524,0.0918 0.518128,0.17053 0.859896,0.19843 0.295802,0.0242 0.594408,-0.0223 0.890352,0 0.135334,0.0102 0.266682,0.0528 0.401738,0.0661 0.220218,0.0218 0.442587,0 0.663879,0 0.674526,0 1.349053,0 2.023576,0 0.473033,0 0.946851,0.0273 1.419093,0 0.160536,-0.009 0.316883,-0.0592 0.477345,-0.0697 0.521774,-0.0341 1.059897,0 1.58414,0 0.265171,0 0.573685,-0.0376 0.836747,0 0.09,0.0129 0.174485,0.054 0.264584,0.0661 0.291512,0.0392 0.587737,0.0403 0.878062,0.0874 0.950613,0.15449 0.317129,0.0966 0.97486,0.29434 0.107667,0.0324 0.226419,0.0242 0.330729,0.0661 0.121822,0.049 0.217866,0.14916 0.33777,0.20267 0.164279,0.0733 0.406098,0.13229 0.590542,0.13229"
         id="path22" />
      <path
         style="fill:none;stroke:#000000;stroke-width:1;stroke-linecap:round;stroke-linejoin:round;stroke-dasharray:none"
         d="m 128.0745,122.68191 39.99238,0.14545"
         id="path30" />
      <path
         style="fill:none;stroke:#000000;stroke-width:1;stroke-linecap:round;stroke-linejoin:round;stroke-dasharray:none"
         d="m 143.44778,123.15805 c -0.47331,-0.75274 0.0505,-0.13077 -0.72301,-0.48896 -0.22257,-0.10307 -0.39262,-0.29893 -0.6122,-0.40823 -0.0643,-0.032 -1.64134,-0.61147 -1.70732,-0.63788 -0.25636,-0.1026 -0.49855,-0.24083 -0.76013,-0.3293 -0.26656,-0.0901 -0.55791,-0.0997 -0.81897,-0.20474 -0.26469,-0.10649 -0.48221,-0.3095 -0.74356,-0.42394 -0.38365,-0.12938 -1.06433,-0.34057 -1.48647,-0.53047 -0.19075,-0.0858 -0.38388,-0.16977 -0.56126,-0.28063 -0.24087,-0.15055 -0.46644,-0.42031 -0.74836,-0.56127 -0.15019,-0.0751 -0.32098,-0.10545 -0.46772,-0.18709 -0.13754,-0.0765 -0.25184,-0.18888 -0.37776,-0.28332 -0.15591,-0.0624 -0.31753,-0.11199 -0.46772,-0.18709 -0.36452,-0.18226 -0.6677,-0.47416 -1.02899,-0.65481 -0.15019,-0.0751 -0.31753,-0.11199 -0.46772,-0.18709 -0.16263,-0.0813 -0.30048,-0.20931 -0.46772,-0.28063 -0.2789,-0.11894 -0.5816,-0.17446 -0.86316,-0.28694 -0.19927,-0.0796 -0.37425,-0.2142 -0.57579,-0.28786 -0.14933,-0.0546 -0.3184,-0.0389 -0.46772,-0.0935 -0.19918,-0.0729 -0.37601,-0.19671 -0.56861,-0.28553 -1.25978,-0.58098 -0.17944,-0.002 -1.42818,-0.71241 -0.2497,-0.14209 -0.47922,-0.32777 -0.74913,-0.42615 -0.21972,-0.0801 -0.47226,-0.027 -0.69442,-0.10001 -0.17496,-0.0575 -0.30917,-0.20172 -0.47387,-0.28415 -0.15075,-0.0754 -0.31874,-0.11252 -0.46948,-0.18796 -0.16353,-0.0818 -0.29659,-0.22534 -0.47033,-0.28238 -0.21817,-0.0716 -0.46172,-0.0316 -0.68214,-0.096 -0.34137,-0.0996 -0.65875,-0.26839 -0.99196,-0.39261 -0.19047,-0.071 -0.39092,-0.11461 -0.57854,-0.19285 -0.40604,-0.16932 -0.62257,-0.36035 -1.04062,-0.47433 -0.18617,-0.0508 -0.383,-0.0519 -0.57096,-0.0955 -0.23474,-0.0545 -0.45876,-0.15182 -0.69517,-0.19863 -0.27684,-0.0548 -0.56385,-0.0475 -0.84006,-0.10539 -0.19692,-0.0413 -0.37862,-0.13756 -0.57265,-0.19079 -0.49524,-0.13583 -1.01443,-0.17539 -1.51416,-0.28645 -0.49819,-0.1107 -0.88156,-0.46772 -1.39966,-0.46772"
         id="path31" />
      <path
         style="fill:none;stroke:#000000;stroke-width:1;stroke-linecap:round;stroke-linejoin:round;stroke-dasharray:none"
         d="m 142.60927,122.99225 c -1.4458,0.25833 -2.58226,1.30363 -3.86281,1.94472 -0.55695,0.27883 -1.16594,0.44587 -1.71929,0.73177 -0.378,0.1953 -0.7001,0.48455 -1.06342,0.70596 -0.36218,0.22072 -0.75283,0.39296 -1.11144,0.61942 -0.87978,0.55556 -1.67163,1.24411 -2.55841,1.78843 -2.52526,1.55004 -1.48655,0.64823 -3.41602,2.10233 -1.83863,1.38563 -0.9378,0.79637 -2.72247,2.30972 -0.45342,0.38448 -0.9375,0.7317 -1.39266,1.11412 -0.40729,0.3422 -0.77275,0.73401 -1.19387,1.05903 -0.287,0.22151 -0.6412,0.34715 -0.92325,0.57493 -0.16343,0.132 -0.24734,0.34184 -0.39588,0.4904 -0.33564,0.33569 -0.33916,0.20411 -0.65651,0.46856 -0.10163,0.0847 -0.179,0.19595 -0.28063,0.28064 -0.25764,0.2147 -0.57995,0.35171 -0.8419,0.56126 -0.18806,0.15045 -0.36042,0.33383 -0.56126,0.46772 -0.26887,0.17925 -0.21028,0.0244 -0.46537,0.27946"
         id="path32" />
      <path
         style="fill:none;stroke:#000000;stroke-width:1;stroke-linecap:round;stroke-linejoin:round;stroke-dasharray:none"
         d="m 157.26227,122.24068 c 1.00226,-0.81669 2.25919,-1.18753 3.35748,-1.85619 0.37033,-0.22547 0.70295,-0.51129 1.08173,-0.72223 1.25199,-0.69719 0.8345,-0.2731 2.11558,-0.82609 0.25404,-0.10966 0.46701,-0.30163 0.7211,-0.41118 2.43108,-1.04815 -0.41787,0.43129 2.08392,-0.81387 0.5367,-0.26712 1.12142,-0.67523 1.62677,-0.97966 0.85595,-0.51564 1.68356,-1.06451 2.53664,-1.58676 0.23762,-0.14547 0.47674,-0.28967 0.72587,-0.41437 0.1577,-0.0789 0.34159,-0.10262 0.49174,-0.1951 0.11264,-0.0694 0.17298,-0.20374 0.28063,-0.28064 0.11348,-0.0811 0.26071,-0.10603 0.37418,-0.18708 0.10765,-0.0769 0.16845,-0.21052 0.28063,-0.28064 1.79716,-1.12322 -0.94277,0.84775 0.93973,-0.47028 0.16527,-0.11571 0.29633,-0.27998 0.47259,-0.37816 0.88979,-0.49567 -0.15334,0.36344 0.74835,-0.28063 0.10765,-0.0769 0.17056,-0.20725 0.28063,-0.28063 0.44936,-0.29958 1.0091,-0.50455 1.49665,-0.74833"
         id="path33" />
      <path
         style="fill:none;stroke:#000000;stroke-width:1;stroke-linecap:round;stroke-linejoin:round;stroke-dasharray:none"
         d="m 157.77173,122.54517 c 0.0344,0.22307 0.0309,0.45536 0.10307,0.66922 0.0582,0.17227 0.18988,0.31017 0.28064,0.46772 0.66661,1.15719 1.50533,2.17238 2.3256,3.22448 0.67463,0.8653 1.28886,1.71709 2.09499,2.47639 0.36846,0.34705 0.80093,0.61918 1.19792,0.93319 0.67204,0.53158 1.34711,1.05953 2.00913,1.60354 0.34047,0.27979 0.67571,0.56654 0.99773,0.86737 0.33884,0.31654 0.62461,0.69019 0.98363,0.98363 0.2807,0.22943 0.63712,0.35227 0.92324,0.5749 0.24048,0.18713 0.42189,0.44035 0.64633,0.64643 0.16728,0.15359 0.35936,0.27853 0.5274,0.43127 0.16847,0.15314 0.3108,0.33367 0.48079,0.48512 0.0319,0.0284 0.72217,0.53031 0.75553,0.56367 0.20531,0.2053 0.37645,0.60917 0.65481,0.74835 0.54152,0.27076 0.0293,-0.15781 0.56127,0.37418 0.38548,0.20863 0.77216,0.41504 1.15643,0.6259 0.48157,0.26426 1.04572,0.53066 1.48077,0.87965 0.33144,0.26589 0.63788,0.55281 1.02898,0.74836 0.11499,0.0575 0.25919,0.036 0.37418,0.0935 0.0789,0.0394 0.11146,0.14171 0.18709,0.18709 0.0846,0.0507 0.19244,0.0495 0.28063,0.0935 0.0394,0.0197 0.0508,0.0828 0.0935,0.0935 0.0896,0.0226 0.18951,-0.0294 0.27708,0 0.46185,0.15493 0.86792,0.83144 1.12253,0.93544 0.26902,0.10989 0.54278,0.0895 0.81739,0.18104"
         id="path34" />
      <path
         style="fill:none;stroke:#ff0000;stroke-width:1;stroke-linecap:round;stroke-linejoin:round;stroke-dasharray:1, 3;stroke-dashoffset:0"
         d="m 31.149006,122.2089 c 0.628544,0.0872 62.314326,-1.32705 62.314326,-1.32705"
         id="path35" />
      <path
         style="fill:none;stroke:#ff0000;stroke-width:1;stroke-linecap:round;stroke-linejoin:round;stroke-dasharray:1, 3;stroke-dashoffset:0"
         d="m 150.22885,105.03482 c 0.37431,40.46949 0.37431,40.46949 0.37431,40.46949"
         id="path36" />
      <text
         xml:space="preserve"
         style="font-size:5.64444px;line-height:1;font-family:'Libertinus Mono';-inkscape-font-specification:'Libertinus Mono';fill:#ff0000;stroke:none;stroke-width:1;stroke-linecap:round;stroke-linejoin:round;stroke-dasharray:none;stroke-dashoffset:0"
         x="33.408615"
         y="100.95895"
         id="text36"><tspan
           sodipodi:role="line"
           id="tspan36"
           style="font-size:5.64444px;fill:#ff0000;stroke:none;stroke-width:1"
           x="33.408615"
           y="100.95895">parallel slice</tspan></text>
      <text
         xml:space="preserve"
         style="font-size:5.64444px;line-height:1;font-family:'Libertinus Mono';-inkscape-font-specification:'Libertinus Mono';fill:#ff0000;stroke:none;stroke-width:1;stroke-linecap:round;stroke-linejoin:round;stroke-dasharray:none;stroke-dashoffset:0"
         x="150.99748"
         y="95.431656"
         id="text36-2"><tspan
           sodipodi:role="line"
           id="tspan36-8"
           style="font-size:5.64444px;text-align:center;text-anchor:middle;fill:#ff0000;stroke:none;stroke-width:1"
           x="150.99748"
           y="95.431656">in series </tspan><tspan
           sodipodi:role="line"
           style="font-size:5.64444px;text-align:center;text-anchor:middle;fill:#ff0000;stroke:none;stroke-width:1"
           x="150.99748"
           y="101.0761"
           id="tspan37">slice</tspan></text>
      <path
         style="fill:none;stroke:#000000;stroke-width:1;stroke-linecap:round;stroke-linejoin:round;stroke-dasharray:none;stroke-dashoffset:0;marker-end:url(#ArrowWide)"
         d="m 79.930995,72.77814 c -0.706075,0.27018 -1.475216,0.412951 -2.118222,0.810541 -0.533969,0.330168 -0.911953,0.864452 -1.337358,1.326144 -1.553421,1.685933 -3.631914,3.782706 -5.006575,5.844694 -0.534871,0.802306 -1.069176,1.763233 -1.50018,2.624449 -0.150878,0.301477 -0.212217,0.644203 -0.375914,0.938914 -0.151406,0.27259 -0.434626,0.463415 -0.561266,0.748356"
         id="path37"
         sodipodi:nodetypes="csssssc" />
      <path
         style="fill:none;stroke:#000000;stroke-width:1;stroke-linecap:round;stroke-linejoin:round;stroke-dasharray:none;stroke-dashoffset:0;marker-end:url(#ArrowWide)"
         d="m 113.30007,69.479829 c 1.04678,0.289041 2.18043,0.205512 3.23137,0.448693 3.46634,0.80209 3.11775,0.988957 6.58651,1.768541 0.757,0.170133 1.5337,0.237848 2.29629,0.380879 1.57452,0.295322 3.19832,0.592431 4.69817,1.134872 1.00927,0.365011 1.97289,1.219462 2.86007,1.771073 0.61305,0.381167 1.22293,0.767924 1.84696,1.130824 0.26764,0.155641 0.57742,0.23672 0.8319,0.413049 0.618,0.42822 1.09234,1.16631 1.76578,1.63228 0.32408,0.22424 0.69851,0.368049 1.02676,0.586124 0.0155,0.01029 1.35939,1.095155 1.37111,1.105593 0.60798,0.541666 0.86289,1.191522 1.32789,1.855814 0.12644,0.180629 0.29827,0.33196 0.39688,0.529167 0.25087,0.501756 0.0633,0.460203 0.38497,0.781857"
         id="path39" />
      <text
         xml:space="preserve"
         style="font-size:5.64444px;line-height:1;font-family:'Libertinus Mono';-inkscape-font-specification:'Libertinus Mono';text-align:center;text-anchor:middle;fill:#000000;stroke:none;stroke-width:1;stroke-linecap:round;stroke-linejoin:round;stroke-dasharray:none;stroke-dashoffset:0"
         x="58.744537"
         y="152.76405"
         id="text39"><tspan
           sodipodi:role="line"
           id="tspan39"
           style="fill:#000000;stroke:none;stroke-width:1"
           x="58.744537"
           y="152.76405">roughly like</tspan><tspan
           sodipodi:role="line"
           style="fill:#000000;stroke:none;stroke-width:1"
           x="58.744537"
           y="158.40849"
           id="tspan40">annotation</tspan></text>
      <text
         xml:space="preserve"
         style="font-size:5.64444px;line-height:1;font-family:'Libertinus Mono';-inkscape-font-specification:'Libertinus Mono';text-align:center;text-anchor:middle;fill:#000000;stroke:none;stroke-width:1;stroke-linecap:round;stroke-linejoin:round;stroke-dasharray:none;stroke-dashoffset:0"
         x="149.69118"
         y="152.89236"
         id="text39-6"><tspan
           sodipodi:role="line"
           id="tspan39-1"
           style="fill:#000000;stroke:none;stroke-width:1"
           x="149.69118"
           y="152.89236">roughly like</tspan><tspan
           sodipodi:role="line"
           style="fill:#000000;stroke:none;stroke-width:1"
           x="149.69118"
           y="158.5368"
           id="tspan40-2">equality</tspan></text>
    </g>
  </g>
</svg>
