<?xml version="1.0" encoding="UTF-8" standalone="no"?>
<!-- Created with Inkscape (http://www.inkscape.org/) -->

<svg
   width="170mm"
   height="120mm"
   viewBox="0 0 170 120"
   version="1.1"
   id="svg1"
   sodipodi:docname="box_either.svg"
   inkscape:version="1.3.2 (091e20ef0f, 2023-11-25, custom)"
   xmlns:inkscape="http://www.inkscape.org/namespaces/inkscape"
   xmlns:sodipodi="http://sodipodi.sourceforge.net/DTD/sodipodi-0.dtd"
   xmlns="http://www.w3.org/2000/svg"
   xmlns:svg="http://www.w3.org/2000/svg">
  <sodipodi:namedview
     id="namedview1"
     pagecolor="#ffffff"
     bordercolor="#000000"
     borderopacity="0.25"
     inkscape:showpageshadow="2"
     inkscape:pageopacity="0.0"
     inkscape:pagecheckerboard="0"
     inkscape:deskcolor="#d1d1d1"
     inkscape:document-units="mm"
     inkscape:zoom="0.70710678"
     inkscape:cx="290.62089"
     inkscape:cy="374.05949"
     inkscape:window-width="1916"
     inkscape:window-height="1029"
     inkscape:window-x="0"
     inkscape:window-y="0"
     inkscape:window-maximized="1"
     inkscape:current-layer="layer1" />
  <defs
     id="defs1">
    <marker
       style="overflow:visible"
       id="marker12"
       refX="0"
       refY="0"
       orient="auto-start-reverse"
       inkscape:stockid="Wide arrow"
       markerWidth="1"
       markerHeight="1"
       viewBox="0 0 1 1"
       inkscape:isstock="true"
       inkscape:collect="always"
       preserveAspectRatio="xMidYMid">
      <path
         style="fill:none;stroke:context-stroke;stroke-width:1;stroke-linecap:butt"
         d="M 3,-3 0,0 3,3"
         transform="rotate(180,0.125,0)"
         sodipodi:nodetypes="ccc"
         id="path12" />
    </marker>
  </defs>
  <g
     inkscape:label="Layer 1"
     inkscape:groupmode="layer"
     id="layer1"
     transform="translate(-12.328941,-21.778333)">
    <g
       id="g10" />
    <g
       id="g14"
       transform="translate(6.734099,12.676159)">
      <rect
         style="fill:none;stroke:#000000;stroke-width:2.64583;stroke-linecap:round;stroke-linejoin:round"
         id="rect1"
         width="33.783169"
         height="30.851425"
         x="69.140564"
         y="23.101248" />
      <text
         xml:space="preserve"
         style="font-size:11.2889px;line-height:1;font-family:'Libertinus Mono';-inkscape-font-specification:'Libertinus Mono';fill:#000000;stroke:none;stroke-width:2.64583;stroke-linecap:round;stroke-linejoin:round"
         x="82.40332"
         y="42.248524"
         id="text1"><tspan
           sodipodi:role="line"
           id="tspan1"
           style="font-size:11.2889px;fill:#000000;stroke:none;stroke-width:2.64583"
           x="82.40332"
           y="42.248524">?</tspan></text>
      <text
         xml:space="preserve"
         style="font-size:11.2889px;line-height:1;font-family:'Libertinus Mono';-inkscape-font-specification:'Libertinus Mono';fill:#000000;stroke:none;stroke-width:2.64583;stroke-linecap:round;stroke-linejoin:round"
         x="65.048111"
         y="66.75721"
         id="text1-5"><tspan
           sodipodi:role="line"
           id="tspan1-3"
           style="font-size:11.2889px;fill:#000000;stroke:none;stroke-width:2.64583"
           x="65.048111"
           y="66.75721">either</tspan></text>
      <path
         style="fill:none;stroke:#000000;stroke-width:2.64583;stroke-linecap:round;stroke-linejoin:round"
         d="m 41.469124,25.44075 c 0.156279,0.0382 0.307993,0.11107 0.468834,0.114605 3.345479,0.07353 -1.916687,-0.349165 2.402107,-0.08216 0.765807,0.04734 1.525344,0.171007 2.290508,0.227837 0.813398,0.06041 1.632604,0.03863 2.443784,0.123791 3.607726,0.378753 0.39954,0.31278 3.283048,0.429071 0.949434,0.03829 1.917528,0 2.86743,0 1.568106,0 3.136209,0 4.704313,0 0.754912,0 1.509826,0 2.264738,0 0.430294,0 0.861436,0.02695 1.290889,0 0.142666,-0.009 0.280088,-0.06075 0.422433,-0.07385 0.366739,-0.03375 0.781114,0 1.146324,0 1.151098,0 2.3022,0 3.453299,0 0.01498,0 -0.02993,0 -0.04489,0 -0.06087,0 -0.121732,0 -0.182597,0"
         id="path1" />
      <path
         style="fill:none;stroke:#000000;stroke-width:2.64583;stroke-linecap:round;stroke-linejoin:round"
         d="m 43.718789,49.560112 c 0.16084,-0.02074 0.3205,-0.05522 0.482521,-0.0622 0.319677,-0.01379 0.639947,0 0.959919,0 0.959937,0 1.920118,-0.02175 2.879807,0 1.832025,0.04153 3.040898,0.157496 4.858866,0.362093 0.580549,0.06534 1.156772,0.167169 1.738029,0.225877 0.50631,0.05114 1.015429,0.069 1.523146,0.103508 1.061741,0.1255 2.122196,0.262395 3.185223,0.376502 0.149051,0.01601 2.164969,0.171492 2.376633,0.181531 0.635392,0.03014 1.275244,-0.03185 1.910546,0 0.744789,0.03734 1.035005,0.128333 1.805995,0.237162 0.206206,0.02326 0.412414,0.04651 0.61862,0.06976 0.145142,0 0.291005,-0.01445 0.435427,0 0.06524,0.0065 0.122317,0.04934 0.186611,0.0622 0.139737,0.02795 0.294709,-0.02344 0.435428,0 0.349056,0.05818 0.139615,0.05045 0.435427,0.124407 0.09705,0.02426 0.211296,-0.01963 0.309488,0 0.06429,0.01286 0.121444,0.05496 0.186611,0.0622 0.280765,0.0312 0.587065,0 0.870852,0"
         id="path2" />
      <path
         style="fill:none;stroke:#000000;stroke-width:2.64583;stroke-linecap:round;stroke-linejoin:round"
         d="m 103.26162,25.075106 c 1.7944,-0.308266 3.63312,-0.02422 5.44347,-0.124408 0.37196,-0.02059 0.7371,-0.115809 1.1089,-0.139134 0.3689,-0.02314 0.73965,0.01736 1.10887,0 3.18985,-0.149999 2.52134,-0.384004 6.71657,-0.155886 1.04768,0.05697 2.07393,0.336471 3.12023,0.414921 0.80228,0.06015 1.60991,-0.03661 2.41361,0 0.4254,0.01938 0.85034,0.07285 1.2679,0.156364 0.8862,0.177239 -0.21134,0.09422 0.87086,0.248815 0.33097,0.04728 0.66428,0.07713 0.99526,0.124408 0.69586,0.09941 1.4479,-0.132415 2.13748,0 0.52488,0.10079 1.00563,0.386718 1.53417,0.466152 0.5167,0.07766 1.04501,0 1.56751,0 0.70248,0 1.40496,0 2.10745,0 0.98368,0 1.93211,0.208145 2.92023,0.139139 0.42773,-0.02987 1.26134,-0.287812 1.73187,-0.130972 0.25015,0.08338 0.3,0.122847 0.54686,0.122847"
         id="path3" />
      <path
         style="fill:none;stroke:#000000;stroke-width:2.64583;stroke-linecap:round;stroke-linejoin:round"
         d="m 102.04707,51.43741 c 2.36463,0.344945 4.75486,0.255405 7.13604,0.255405 0.62156,0 1.24515,0.05031 1.86467,0 0.17134,-0.01392 0.32887,-0.109427 0.4999,-0.126686 0.50274,-0.05072 1.01169,-0.03342 1.51588,0 3.07305,0.203735 0.49163,0.152805 4.56366,0.660361 2.09696,0.261376 3.50318,0.190719 5.63463,0.190719 1.01408,0 2.03014,0.0636 3.04222,0 0.31747,-0.01995 0.62796,-0.108386 0.94525,-0.13099 0.2971,-0.02117 0.59626,0.01818 0.89356,0 0.50739,-0.03104 1.0101,-0.123121 1.51785,-0.147529 0.75426,-0.03626 1.79112,0.133295 2.58757,0 0.48214,-0.08069 1.02771,-0.146446 1.50183,-0.251441 0.2577,-0.05707 0.49289,-0.197054 0.7517,-0.248817 0.333,-0.0666 0.78652,0 1.11967,0 0.47198,0 1.02291,-0.06714 1.49289,0 0.16926,0.02418 0.327,0.113456 0.49763,0.124407 0.94149,0.06043 1.93572,0 2.8815,0"
         id="path4" />
      <path
         style="fill:none;stroke:#000000;stroke-width:1;stroke-linecap:round;stroke-linejoin:round;stroke-dasharray:none;marker-end:url(#marker12)"
         d="m 61.631573,68.622621 c -2.34061,-0.07484 -4.366173,1.105807 -6.153071,2.49683 -0.537908,0.418738 -0.995373,0.679472 -1.417886,1.241947 -0.15752,0.2097 -0.199432,0.490333 -0.351877,0.703754 -0.144622,0.20247 -0.416542,0.305271 -0.527818,0.527818 -0.289853,0.57971 -0.409096,2.254313 -0.703754,2.990961 -0.0308,0.07701 -0.155824,0.09548 -0.175938,0.17594 -0.302712,1.210841 0.458706,-0.24927 -0.17594,1.231571 -0.0833,0.194355 -0.268584,0.33346 -0.351877,0.527815 -0.312547,0.729276 -0.495652,1.699604 -0.703757,2.463147 -0.344369,1.263509 -0.322511,0.730474 -0.531487,1.781476 -0.08531,0.429059 0,1.030555 0,1.462268"
         id="path10" />
      <path
         style="fill:none;stroke:#000000;stroke-width:1;stroke-linecap:round;stroke-linejoin:round;stroke-dasharray:none;marker-end:url(#marker12)"
         d="m 119.0017,69.454249 c 0.34753,-0.137753 1.69805,-0.693772 2.04316,-0.741908 0.49447,-0.06897 0.99852,0 1.49778,0 1.99159,0 3.57061,0.08932 5.40365,1.007364 1.8276,0.915318 2.76028,2.188692 4.25886,3.483769 1.253,1.082852 2.98228,1.939221 3.98257,3.316261 0.24562,0.338137 0.34664,0.762487 0.56072,1.121428 0.42923,0.719709 0.992,1.384128 1.40751,2.111267 0.092,0.161023 0.093,0.361939 0.17594,0.527817"
         id="path13"
         sodipodi:nodetypes="csssssssc" />
      <g
         id="g8"
         transform="matrix(0.69474729,0,0,0.69474729,-15.955507,35.646278)">
        <path
           style="fill:none;stroke:#000000;stroke-width:2.64583;stroke-linecap:round;stroke-linejoin:round"
           d="m 42.167185,79.4563 c 0.798491,-0.07876 1.609585,0.08364 2.407822,0 0.589569,-0.06178 1.160817,-0.253307 1.75056,-0.313388 3.445439,-0.35102 4.303176,-0.09454 8.160139,-0.190582 4.114231,-0.102447 4.954,-0.517732 9.402757,-0.22401 4.300956,0.283964 12.842616,1.357136 17.417063,1.990522 2.823297,0.390919 5.626915,0.929319 8.459716,1.244076 3.142128,0.349125 6.300512,0.536149 9.454975,0.746445 8.240103,0.549341 9.431323,0.676328 17.417053,0.248814 1.90838,-0.102164 3.82755,-0.177136 5.71178,-0.496528 1.30187,-0.220675 2.5203,-0.793953 3.80088,-1.115941 0.48196,-0.121184 0.99019,-0.105759 1.47592,-0.210849 0.93966,-0.203298 1.84448,-0.566661 2.79466,-0.71311 2.19976,-0.339043 4.4489,-0.200295 6.66434,-0.414076 2.63727,-0.254484 5.2536,-0.732493 7.89828,-0.8925 0.6932,-0.04194 1.39172,-0.06211 2.08341,0 0.62829,0.05641 1.24348,0.373224 1.86612,0.373224"
           id="path5" />
        <path
           style="fill:none;stroke:#000000;stroke-width:2.64583;stroke-linecap:round;stroke-linejoin:round"
           d="m 42.034766,111.28948 c 1.179687,0.042 2.366632,-0.0596 3.54543,0 0.905341,0.0457 1.796915,0.29767 2.70341,0.29527 1.730681,-0.005 3.459098,-0.13079 5.18946,-0.16459 1.078624,-0.0211 2.158164,0.0329 3.236495,0 9.781669,-0.29852 19.486969,-2.04338 29.293414,-1.70745 2.613626,0.0895 6.501551,0.41967 8.965153,0.71322 1.738439,0.20714 3.462557,0.52285 5.199432,0.74277 1.52455,0.19304 3.05783,0.31124 4.58342,0.49593 1.37466,0.16643 2.73339,0.47316 4.11458,0.57168 1.35988,0.097 2.70175,-0.0866 4.05344,-0.14748 1.11659,-0.0503 2.23674,-0.0539 3.35316,0 0.12573,0.006 3.10275,0.28104 3.36496,0.32046 0.52736,0.0793 1.04215,0.22986 1.56881,0.31377 2.49127,0.39692 5.04132,0.31084 7.53651,0.65908 0.47914,0.0669 0.93682,0.25556 1.41717,0.31313 0.39571,0.0474 0.79708,0 1.19562,0 1.025,0 2.05,0 3.075,0 0.69597,0 1.43952,-0.0693 2.13236,0 1.73204,0.17321 -0.60846,0.12441 1.36848,0.12441 2.01396,0 4.05998,-0.14773 6.06562,0 0.9616,0.0708 1.84395,0.47895 2.75402,0.75304 0.16372,0.0493 0.33005,0.0904 0.49763,0.1244 0.27434,0.0556 -0.0362,-0.17445 0.48155,0 0.87494,0.29482 -0.0163,0.24882 0.62204,0.24882"
           id="path6" />
      </g>
      <g
         id="g9"
         transform="matrix(0.48096747,0,0,0.48096747,98.729787,27.141648)">
        <path
           style="fill:none;stroke:#000000;stroke-width:2.64583;stroke-linecap:round;stroke-linejoin:round"
           d="m 43.890004,130.84307 c 0.476945,0.56231 0.89813,1.17713 1.430837,1.68693 1.718024,1.64415 8.834141,6.97378 9.104424,7.18401 2.331196,1.81323 4.547343,3.78029 6.966825,5.47393 4.221396,2.95498 8.600842,5.67803 12.938387,8.45971 4.252412,2.72709 10.769552,7.12893 15.92417,9.20617 3.503345,1.41179 7.078554,2.65586 10.699053,3.73222 2.52653,0.75113 5.14126,1.16522 7.71327,1.74171 1.7161,0.38464 11.07178,2.41768 12.93839,2.98578 1.78305,0.54267 3.49185,1.30528 5.22512,1.99052 5.29237,2.09234 5.25124,1.95925 9.91415,4.70346 0.0917,0.054 5.40188,3.22276 6.99708,4.40164 0.26534,0.1961 0.51,0.51118 0.74764,0.74883"
           id="path7" />
        <path
           style="fill:none;stroke:#000000;stroke-width:2.64583;stroke-linecap:round;stroke-linejoin:round"
           d="m 43.562145,184.25373 c 1.876576,-1.72293 4.251402,-2.99804 6.472968,-4.21915 2.16314,-1.18899 4.351044,-2.34754 6.623322,-3.31171 1.788459,-0.75888 3.672168,-1.28193 5.451322,-2.06237 0.974614,-0.42752 1.859875,-1.03511 2.789814,-1.55267 1.103889,-0.55195 2.176777,-1.17083 3.31167,-1.65585 2.703637,-1.15545 5.582537,-1.79105 8.300757,-2.88944 2.273994,-0.91889 -0.128664,-0.0601 1.741707,-0.99526 0.399484,-0.19974 0.829385,-0.33176 1.244077,-0.49763 1.184118,-0.81318 2.309378,-1.71954 3.552359,-2.43954 0.889227,-0.51509 1.878616,-0.83366 2.817923,-1.25049 0.921592,-0.64617 1.792571,-1.37134 2.764775,-1.93852 1.331444,-0.77675 2.860595,-0.99079 4.226806,-1.68266 0.845386,-0.42812 1.560015,-1.08924 2.410716,-1.5067 3.756448,-1.84338 8.134289,-3.03397 11.864599,-4.9017 0.85175,-0.42647 1.58736,-1.05649 2.41673,-1.525 0.56083,-0.31681 1.17497,-0.52987 1.74655,-0.82684 0.75773,-0.39369 1.46554,-0.88297 2.23934,-1.24408 0.47533,-0.22182 1.00603,-0.30238 1.49289,-0.49763 0.77153,-0.30941 1.52341,-0.66602 2.27803,-1.01467 3.21343,-1.48464 -1.36677,0.62109 1.99052,-1.24407 0.39043,-0.21691 0.84459,-0.29789 1.24408,-0.49763 0.84386,-0.42194 2.04457,-1.3115 2.80477,-1.7756 0.63679,-0.38878 1.3079,-0.71953 1.94352,-1.11021 1.0913,-0.67076 2.09144,-1.48543 3.19745,-2.13164 0.81903,-0.47853 1.73998,-0.77197 2.54382,-1.27558 0.35377,-0.22164 0.61789,-0.588 1.00219,-0.75105 0.83763,-0.35539 1.76248,-0.46508 2.61482,-0.78358 0.53479,-0.19983 0.99569,-0.56992 1.53189,-0.76593 0.3972,-0.14519 0.85537,-0.0822 1.24408,-0.24881 0.21562,-0.0924 0.28781,-0.39272 0.49763,-0.49763 0.38138,-0.19069 1.99381,-0.64684 2.47898,-0.7434 0.16268,-0.0324 0.34933,0.0743 0.49763,0 0.36793,-0.18435 0.63346,-0.53063 0.9858,-0.74328 0.14026,-0.0847 0.33247,0.0394 0.49149,0 0.24253,-0.0601 0.47408,-0.15803 0.71112,-0.23705"
           id="path8" />
      </g>
    </g>
  </g>
</svg>
