<?xml version="1.0" encoding="UTF-8" standalone="no"?>
<!-- Created with Inkscape (http://www.inkscape.org/) -->

<svg
   width="400"
   height="400"
   viewBox="0 0 105.83333 105.83333"
   version="1.1"
   id="svg1"
   inkscape:version="1.3.2 (091e20ef0f, 2023-11-25, custom)"
   sodipodi:docname="404.svg"
   xmlns:inkscape="http://www.inkscape.org/namespaces/inkscape"
   xmlns:sodipodi="http://sodipodi.sourceforge.net/DTD/sodipodi-0.dtd"
   xmlns="http://www.w3.org/2000/svg"
   xmlns:svg="http://www.w3.org/2000/svg">
  <sodipodi:namedview
     id="namedview1"
     pagecolor="#ffffff"
     bordercolor="#000000"
     borderopacity="0.25"
     inkscape:showpageshadow="2"
     inkscape:pageopacity="0.0"
     inkscape:pagecheckerboard="0"
     inkscape:deskcolor="#d1d1d1"
     inkscape:document-units="mm"
     inkscape:zoom="2.245064"
     inkscape:cx="272.37531"
     inkscape:cy="270.1482"
     inkscape:window-width="1916"
     inkscape:window-height="1029"
     inkscape:window-x="0"
     inkscape:window-y="0"
     inkscape:window-maximized="1"
     inkscape:current-layer="layer1" />
  <defs
     id="defs1" />
  <g
     inkscape:label="Layer 1"
     inkscape:groupmode="layer"
     id="layer1">
    <path
       style="fill:none;stroke-width:0.4;stroke:#000000"
       d="m 31.819905,85.702798 c 0.325591,0.05004 0.647467,0.141668 0.97677,0.150116 1.624555,0.04167 3.250764,-0.04367 4.875266,0 2.509848,0.06747 5.014661,0.281657 7.524882,0.333333 17.478634,0.359831 -0.683636,-0.532043 19.294713,0.333335 4.434107,0.192067 3.182612,-0.170172 5.495046,0.700916"
       id="path1" />
    <path
       style="fill:none;stroke:#000000;stroke-width:0.4"
       d="m 49.913513,86.750445 c -0.08473,-2.030058 0.41819,-4.02652 0.545327,-6.042893 0.02193,-0.347975 -0.02355,-0.69813 0,-1.046001 0.04029,-0.594802 0.09947,-1.194837 0.256046,-1.770076 0.09738,-0.357756 0.318346,-0.676968 0.395525,-1.039619 0.171749,-0.807054 0.207545,-1.638404 0.255963,-2.462107 0.0213,-0.36227 -0.04503,-0.728596 0,-1.088684 0.03673,-0.293682 0.197991,-0.561488 0.24297,-0.854019 0.03679,-0.239273 -0.01984,-0.484984 0,-0.726255 0.01958,-0.238149 0.09997,-0.468823 0.117851,-0.707107 0.127087,-1.693524 -0.623761,-5.053052 -1.337739,-6.594131 -0.360421,-0.777951 -0.524616,-0.908817 -1.025104,-1.529979 -0.522579,-0.648576 -0.972902,-1.307711 -1.615469,-1.854399 -0.569442,-0.484476 -1.513573,-1.103288 -2.131735,-1.558565 -3.25261,-2.395548 0.662104,0.466212 -2.009137,-1.583711 -0.301681,-0.23151 -0.640504,-0.414478 -0.928675,-0.662601 -0.938379,-0.80798 -1.522785,-1.615358 -2.321253,-2.587273 -0.338113,-0.411565 -0.942477,-1.133954 -1.18364,-1.567535 -0.222377,-0.399812 -0.363434,-0.839801 -0.554757,-1.255368 -0.632502,-1.373844 -0.875503,-2.789508 -0.528682,-4.296389 0.571621,-2.483594 2.154311,-3.701582 4.11938,-5.087009 3.725137,-2.626318 5.355113,-2.762147 9.861026,-1.979303 1.202401,0.208902 2.622655,0.441545 3.703536,1.090073 0.178965,0.107378 0.545434,0.468 0.707107,0.589256 0.426323,0.319741 0.718132,1.329439 0.824958,1.649915 0.27174,0.815226 0.562255,2.46007 -0.328917,3.039499 -0.376793,0.244986 -0.236386,0.01498 -0.824957,0.235704 -0.132623,0.04973 -0.223367,0.179906 -0.353555,0.235702 -0.444302,0.190415 -1.075222,0.418467 -1.553221,0.478215 -1.025099,0.128138 -2.157015,-0.136178 -3.074127,-0.591751 -1.742162,-0.865412 -3.667408,-2.466424 -5.690158,-1.310568 -1.121085,0.640619 -1.22868,2.407983 -1.30769,3.531909 -0.07106,1.010846 -0.07227,2.204149 0.139723,3.192883 0.444299,2.072207 1.79554,4.739797 3.895125,5.590024 1.542904,0.624801 4.28004,0.452832 5.909135,0.452832 1.139767,0 2.996806,0.02315 4.060576,-0.605705 0.291709,-0.172445 0.51984,-0.434883 0.782879,-0.64852 2.301859,-1.869546 2.895076,-2.84366 3.828327,-5.628614 0.176969,-0.5281 0.578914,-1.379805 0.657122,-1.960872 0.04532,-0.336735 -0.02281,-0.68031 0,-1.019315 0.04003,-0.594733 0.198951,-1.177375 0.240342,-1.772018 0.104683,-1.503862 0.184685,-2.440456 -0.111493,-3.921339 -0.07814,-0.390689 -0.05091,-0.816504 -0.238217,-1.19113 -0.182369,-0.364734 -0.475695,-0.827088 -0.701548,-1.16182 -0.06214,-0.0921 -0.178536,-0.140425 -0.235702,-0.235702 -0.06392,-0.106521 -0.04894,-0.25019 -0.11785,-0.353552 -0.395494,-0.593241 -1.105088,-1.193122 -1.772068,-1.416367 -0.195011,-0.06527 -0.492451,0 -0.702749,0 -0.734529,0 -3.364966,0.149749 -3.889087,0 -0.168923,-0.04827 -0.300969,-0.193096 -0.471405,-0.235704 -0.152443,-0.03811 -0.318961,0.03811 -0.471403,0 -0.170437,-0.04261 -0.306909,-0.174017 -0.471406,-0.235702 -0.503756,-0.188907 -1.056365,-0.317426 -1.532064,-0.589256 -0.192942,-0.110252 -0.297879,-0.332584 -0.471406,-0.471405 -0.685728,-0.548582 -1.019241,-1.160979 -1.296363,-1.992342 -0.08132,-0.243962 0.02945,-0.707191 0,-0.942808 -0.04018,-0.32144 -0.178146,-0.62402 -0.235701,-0.942809 -0.192212,-1.064656 -0.192167,-2.074042 -0.24924,-3.147414 -0.09583,-1.802209 -0.263245,-3.654105 -0.131718,-5.464799 0.07727,-1.063781 0.497621,-2.067799 0.712097,-3.095916 0.06914,-0.33143 0.06621,-0.674331 0.120333,-1.008543 0.181985,-1.123849 0.584165,-2.178194 0.709273,-3.304158 0.05528,-0.497552 0.28361,-0.924618 0.353552,-1.414215 0.127384,-0.891678 0.0064,-1.8189 0.117851,-2.710576 0.0515,-0.412024 0.0594,-0.887224 0.117851,-1.296363 0.01757,-0.122977 0.117853,-0.229327 0.117853,-0.353553 0,-0.08784 -0.103412,-0.149056 -0.117853,-0.235702 -0.03583,-0.215023 -0.03939,-0.824322 0,-1.06066 0.08025,-0.4814963 0.171056,-0.8412568 0.353555,-1.2963629 0.151262,-0.3772107 0,-2.9438875 0,-3.4088424 0,-2.5548791 0,-5.10975826 0,-7.6646374"
       id="path2" />
    <text
       xml:space="preserve"
       style="font-size:4.23333px;line-height:1;font-family:'DejaVu Sans';-inkscape-font-specification:'DejaVu Sans';fill:#000000;stroke:none;stroke-width:0.4"
       x="44.455273"
       y="95.750252"
       id="text2"><tspan
         sodipodi:role="line"
         id="tspan2"
         style="font-style:normal;font-variant:normal;font-weight:normal;font-stretch:normal;font-family:'DejaVu Sans';-inkscape-font-specification:'DejaVu Sans';fill:#000000;stroke:none;stroke-width:0.4"
         x="44.455273"
         y="95.750252">404 :(</tspan></text>
  </g>
</svg>
