<?xml version="1.0" encoding="UTF-8" standalone="no"?>
<!-- Created with Inkscape (http://www.inkscape.org/) -->

<svg
   width="400"
   height="400"
   viewBox="0 0 105.83333 105.83333"
   version="1.1"
   id="svg1"
   inkscape:version="1.3.2 (091e20ef0f, 2023-11-25, custom)"
   sodipodi:docname="questions.svg"
   xmlns:inkscape="http://www.inkscape.org/namespaces/inkscape"
   xmlns:sodipodi="http://sodipodi.sourceforge.net/DTD/sodipodi-0.dtd"
   xmlns="http://www.w3.org/2000/svg"
   xmlns:svg="http://www.w3.org/2000/svg">
  <sodipodi:namedview
     id="namedview1"
     pagecolor="#ffffff"
     bordercolor="#000000"
     borderopacity="0.25"
     inkscape:showpageshadow="2"
     inkscape:pageopacity="0.0"
     inkscape:pagecheckerboard="0"
     inkscape:deskcolor="#d1d1d1"
     inkscape:document-units="mm"
     inkscape:zoom="1.122532"
     inkscape:cx="302.44126"
     inkscape:cy="82.402995"
     inkscape:window-width="1916"
     inkscape:window-height="1029"
     inkscape:window-x="0"
     inkscape:window-y="0"
     inkscape:window-maximized="1"
     inkscape:current-layer="layer1" />
  <defs
     id="defs1" />
  <g
     inkscape:label="Layer 1"
     inkscape:groupmode="layer"
     id="layer1">
    <path
       style="fill:none;stroke:#000000;stroke-width:0.4"
       d="m 21.838348,105.20721 c 0.07537,-0.43759 0.08255,-0.89259 0.226115,-1.31278 0.316754,-0.9271 2.091478,-3.22781 2.696035,-3.83241 0.489838,-0.48987 1.125269,-0.809738 1.662618,-1.246967 0.592496,-0.482105 1.104689,-1.062667 1.724518,-1.509086 0.67532,-0.486383 3.607795,-2.16413 4.439423,-2.441802 0.778139,-0.259813 1.623242,-0.250637 2.421458,-0.440002 6.116458,-1.451031 -1.806524,0.09124 4.301025,-1.074444 2.648315,-0.505455 6.809999,-1.126646 9.641093,-0.837951 2.085115,0.212627 4.143611,0.63415 6.215208,0.952576 1.056876,0.162452 2.124636,0.265481 3.170553,0.487802 1.584624,0.336833 3.211544,0.903306 4.765727,1.382072 0.558472,0.172035 1.45382,0.363234 1.999999,0.666666 0.559837,0.31102 1.789382,1.070316 2.189586,1.518351 0.215802,0.241593 0.283951,0.591963 0.500002,0.833334 0.670208,0.748755 1.664078,1.066602 2.396198,1.706011 0.209217,0.18273 0.289095,0.48589 0.499999,0.66667 0.479439,0.41094 1.297255,0.71993 1.833335,1.16667 0.712142,0.59345 1.803789,1.59197 2.333332,2.33333 0.188288,0.2636 0.300839,0.57785 0.500001,0.83333 0.492374,0.63162 1.138039,0.97139 1.682769,1.51611"
       id="path2" />
    <path
       style="fill:none;stroke:#000000;stroke-width:0.4"
       d="m 53.328707,84.346832 c -0.894411,-0.343125 -1.512335,-0.303022 -2.35408,0.117851 -0.0054,0.0027 -0.350668,0.144277 -0.353552,0.235701 -0.015,0.475255 0.593661,-0.0091 0.657796,0.324919 0.08698,0.453004 -0.282045,0.881584 -0.359637,1.336291 -0.05931,0.347583 -0.124495,1.34529 0.117851,1.649916 0.339717,0.427019 1.276823,-0.07606 1.708216,-0.12898 0.651936,-0.07997 0.334221,-0.0024 0.683384,0.10599 0.58842,0.182523 1.800818,-0.182811 2.018337,-0.829913 0.07479,-0.222483 -0.01855,-0.470168 0,-0.704152 0.06786,-0.855766 0.117851,-1.670045 0.117851,-2.529202 0,-0.431369 0.0407,-0.70416 -0.08955,-0.677328 -0.399486,0.08229 -0.831461,0.355235 -1.170548,0.581295 -0.102238,0.06816 -0.196229,0.26403 -0.310253,0.310258 -0.215424,0.08733 -0.443879,0.138234 -0.665819,0.207354 z"
       id="path3" />
    <path
       style="fill:none;stroke:#000000;stroke-width:0.4"
       d="m 53.758142,72.798182 c -0.814489,0.05862 -1.739078,-0.18688 -2.499728,0.235704 -0.747395,0.415219 -2.86017,4.167307 -1.652879,5.214141 1.269392,1.100683 3.252976,0.231892 4.625097,-0.07883 0.07663,-0.01736 0.227978,-0.07819 0.235701,0 0.01834,0.185632 -0.28712,0.269253 -0.332361,0.45022 -0.05001,0.200036 -0.09145,0.897734 0.327183,0.698318 1.061506,-0.505656 1.492859,-0.859814 2.424846,-1.583582 0.352642,-0.273857 0.623916,-0.65868 1.015084,-0.87395 0.0831,-0.04573 -0.0072,0.281477 0.08706,0.270904 0.05109,-0.0057 0.06712,-0.07933 0.109061,-0.109061 0.236477,-0.167648 0.518472,-0.277273 0.724091,-0.481597 0.508891,-0.505683 0.970253,-1.738218 0.476353,-2.371868 -0.74054,-0.950077 -3.210698,-0.594752 -4.356357,-0.594752"
       id="path4" />
    <path
       style="fill:none;stroke:#000000;stroke-width:0.4"
       d="m 13.053052,53.978783 c -0.541966,0.444577 -1.568685,2.195608 -1.293338,2.922286 0.549513,1.450244 1.905664,1.988166 3.383743,2.16876 5.049814,0.61699 8.896773,0.570886 13.767645,0.235702 1.234083,-0.08492 2.455921,-0.327036 3.691983,-0.37519 0.218202,-0.0085 0.0085,0.408688 0.233812,0.937125 0.119261,0.279744 0.34579,0.500647 0.506053,0.759092 0.880592,1.420059 1.666777,2.592615 3.107632,3.578334 2.284992,1.563205 4.82169,2.115526 7.53959,2.228847 0.68975,0.02876 1.380702,0 2.071055,0 0.30847,0 0.616937,0 0.925407,0 0.157136,0 0.330031,-0.06858 0.471405,0 0.386123,0.187322 0.49244,0.72572 0.843286,0.972878 0.532474,0.375108 3.871663,1.77233 3.996941,1.801688 1.268582,0.297294 2.588038,0.305758 3.884499,0.435663 6.022265,0.603427 3.930957,0.454435 9.935731,0.454435 0.398266,0 4.039722,0.164238 4.863108,-0.120031 0.401441,-0.138594 2.824945,0.04429 3.158624,0 1.976499,-0.262334 4.003048,-1.147341 5.751825,-1.970913 1.269307,-0.597767 2.553925,-1.189278 3.71928,-1.970566 0.595889,-0.399505 2.810872,-2.614758 3.53378,-3.324397 0.12369,-0.121423 0.224036,-0.273264 0.372356,-0.362955 0.06499,-0.0393 0.152405,-0.0088 0.227846,0 0.288208,0.03352 0.575778,0.07442 0.861182,0.126669 0.897789,0.164378 1.779751,0.430019 2.687703,0.523094 1.561095,0.160031 3.134691,0.155663 4.70199,0.234429 1.543452,0.07757 3.086724,0.31043 4.63026,0.234574 3.07009,-0.150878 7.66625,-1.261274 10.12018,-3.387444 1.7561,-1.521553 3.02713,-3.420435 4.99587,-4.73293"
       id="path5" />
    <path
       style="fill:none;stroke:#000000;stroke-width:0.4"
       d="m 55.843021,18.744192 c 1.181476,0.105556 2.435008,-0.10312 3.544425,0.316667 0.31764,0.120191 0.127674,0.710634 -0.01519,1.018746 -1.153956,2.488819 -2.342274,4.980042 -3.833743,7.282508 -1.214189,1.874408 -2.727836,3.544408 -4.242642,5.185449 -3.265656,3.537797 -4.324119,4.527458 -8.70531,6.121297 -0.785852,0.285888 -1.640485,0.462164 -2.475068,0.40953 -0.266862,-0.01683 -0.605322,-0.341749 -0.533278,-0.599255 0.430088,-1.537285 1.039621,-3.057295 1.927439,-4.383947 3.0885,-4.615114 8.285453,-9.121332 12.256516,-12.727923 2.928778,-2.659968 5.924745,-5.245004 8.884806,-7.870116 0.04432,-0.0393 0.180213,-0.09465 0.128225,-0.123037 -0.103436,-0.05648 -0.240202,-0.03225 -0.353555,0 -1.041323,0.296297 -2.096939,0.564647 -3.096101,0.981561 -2.238386,0.933997 -4.659321,1.608872 -6.599664,3.06413 -6.513925,4.885441 -4.844737,11.784276 0.235702,16.970559 4.335266,4.425585 9.995834,7.10523 15.79205,8.956686 2.752029,0.879067 5.633572,1.28534 8.461229,1.877605 0.164122,0.03437 0.480735,-0.166193 0.503047,0 0.02336,0.174119 -0.297465,0.211021 -0.471405,0.235701 -1.896285,0.26906 -3.813257,0.375013 -5.709925,0.641356 -10.567284,1.483926 -7.935082,0.602181 -15.007511,3.253372 -0.03854,0.01445 0.08283,0.0065 0.123463,0 0.658654,-0.106053 1.346658,-0.10712 1.972746,-0.337521 3.108188,-1.14381 6.291427,-2.173248 9.19239,-3.771236 6.397424,-3.524007 12.570851,-7.457017 18.620478,-11.549412 0.295976,-0.200218 7.46488,-5.28167 7.032728,-8.016148 -0.157676,-0.997706 -1.419813,-1.690947 -2.421372,-1.821938 -4.334409,-0.566884 -8.801891,-0.936929 -13.112292,-0.209664 -2.460892,0.415211 -4.818541,1.78739 -6.59966,3.535534 -2.426648,2.381719 -0.805673,6.901334 1.386779,8.547444 2.475195,1.858399 5.494065,2.9757 8.48528,3.771236 0.07719,0.02053 27.175262,4.208327 27.341462,4.242641 1.92978,0.398415 3.85937,0.957689 5.61132,1.859592 0.27151,0.139772 -0.10306,0.70199 -0.37824,0.83439 -3.33124,1.602785 -6.64833,3.37461 -10.23457,4.271831 -6.370797,1.593865 -18.742158,2.310939 -25.455848,1.178509 -5.807919,-0.979649 -8.701286,-1.50745 -8.468852,-7.169475 0.257159,-6.264365 2.465588,-10.432613 5.185449,-16.027754 3.596622,-7.398762 7.517376,-14.4109 14.142135,-19.5632873 1.073097,-1.5692464 3.124888,-1.5594933 4.546584,-2.5619313 0.05694,-0.040146 -0.146761,-0.031299 -0.209002,0 -0.579517,0.291423 -1.172755,0.5715021 -1.694339,0.9571376 -1.922526,1.4214227 -3.933192,2.76167 -5.623112,4.453034 -4.081122,4.08461 -8.63604,11.359466 -5.656856,17.441971 1.051079,2.145953 2.96681,3.852095 4.949749,5.185449 8.742648,5.878677 17.418242,5.18545 27.341462,5.18545 1.02051,0 2.04222,-0.04957 3.06153,0 0.20163,0.0098 -0.39656,0.07608 -0.59359,0.12001 -0.68874,0.153548 -1.36228,0.394049 -2.06357,0.472382 -3.50715,0.391739 -7.02439,0.699399 -10.54541,0.936005 -8.644626,0.580898 -18.181574,1.028901 -26.870062,0.707107 C 68.790367,41.774234 60.0768,41.765111 53.915239,37.783796 48.338616,34.180438 46.204285,28.798874 44.722852,22.698851 c -0.634765,-2.613739 -0.942809,-5.324159 -0.942809,-8.013873 0,-2.300027 0.394195,-4.601726 0.942809,-6.8353655 1.426498,-5.8078818 2.641703,-7.03802219 5.49452,-12.010727 0.204634,-0.3566948 0.849683,-1.1511772 0.438462,-1.1531306 -0.16197,-7.673e-4 -0.323691,0.051406 -0.471406,0.1178513 -1.070782,0.4816639 -2.131689,0.9865476 -3.176145,1.5229077 -3.157474,1.6214579 -6.330527,3.21658559 -9.428091,4.9497475 C 34.076023,3.2369302 30.460209,5.0476091 27.209297,7.4045201 21.659249,11.428305 15.933166,16.856516 13.302863,23.43227 c -2.076823,5.192059 -1.643722,12.043857 2.121321,16.499157 2.93123,3.468624 7.046367,5.756727 10.842304,8.249581 1.500429,0.985356 3.18801,1.777071 4.949746,2.121321 9.14264,1.78649 17.04984,2.240674 26.162953,1.885616 2.523265,-0.09831 5.041796,-0.356155 7.542471,-0.707107 1.504363,-0.211127 2.98287,-0.601461 4.436248,-1.043474 0.06431,-0.01955 -0.160234,0.0131 -0.187336,0.0746 -0.146989,0.333615 -0.111045,0.347125 -0.111045,0.700304"
       id="path6" />
    <text
       xml:space="preserve"
       style="font-style:normal;font-variant:normal;font-weight:normal;font-stretch:normal;font-size:4.23333px;line-height:1;font-family:'Liberation Mono';-inkscape-font-specification:'Liberation Mono';fill:none;stroke:#000000;stroke-width:0.4"
       x="27.902973"
       y="22.411257"
       id="text6"><tspan
         sodipodi:role="line"
         id="tspan6"
         style="stroke-width:0.4;-inkscape-font-specification:'Liberation Mono';font-family:'Liberation Mono';font-weight:normal;font-style:normal;font-stretch:normal;font-variant:normal"
         x="27.902973"
         y="22.411257" /></text>
    <text
       xml:space="preserve"
       style="font-style:normal;font-variant:normal;font-weight:normal;font-stretch:normal;font-size:1.76389px;line-height:1;font-family:'Liberation Mono';-inkscape-font-specification:'Liberation Mono';fill:none;stroke:#000000;stroke-width:0.4"
       x="9.6167698"
       y="24.330824"
       id="text7"><tspan
         sodipodi:role="line"
         id="tspan7"
         style="font-size:1.76389px;fill:#000000;stroke:none;stroke-width:0.4"
         x="9.6167698"
         y="24.330824">float q_rsqrt(float number)</tspan><tspan
         sodipodi:role="line"
         style="font-size:1.76389px;fill:#000000;stroke:none;stroke-width:0.4"
         x="9.6167698"
         y="26.094713"
         id="tspan8">{</tspan><tspan
         sodipodi:role="line"
         style="font-size:1.76389px;fill:#000000;stroke:none;stroke-width:0.4"
         x="9.6167698"
         y="27.858604"
         id="tspan9">  long i;</tspan><tspan
         sodipodi:role="line"
         style="font-size:1.76389px;fill:#000000;stroke:none;stroke-width:0.4"
         x="9.6167698"
         y="29.622494"
         id="tspan10">  float x2, y;</tspan><tspan
         sodipodi:role="line"
         style="font-size:1.76389px;fill:#000000;stroke:none;stroke-width:0.4"
         x="9.6167698"
         y="31.386383"
         id="tspan11">  const float threehalfs = 1.5F;</tspan><tspan
         sodipodi:role="line"
         style="font-size:1.76389px;fill:#000000;stroke:none;stroke-width:0.4"
         x="9.6167698"
         y="33.150272"
         id="tspan12" /><tspan
         sodipodi:role="line"
         style="font-size:1.76389px;fill:#000000;stroke:none;stroke-width:0.4"
         x="9.6167698"
         y="34.914162"
         id="tspan13">  x2 = number * 0.5F;</tspan><tspan
         sodipodi:role="line"
         style="font-size:1.76389px;fill:#000000;stroke:none;stroke-width:0.4"
         x="9.6167698"
         y="36.678055"
         id="tspan14">  y  = number;</tspan><tspan
         sodipodi:role="line"
         style="font-size:1.76389px;fill:#000000;stroke:none;stroke-width:0.4"
         x="9.6167698"
         y="38.441944"
         id="tspan15">  i  = * ( long * ) &amp;y;                       // evil floating point bit level hacking</tspan><tspan
         sodipodi:role="line"
         style="font-size:1.76389px;fill:#000000;stroke:none;stroke-width:0.4"
         x="9.6167698"
         y="40.205833"
         id="tspan16">  i  = 0x5f3759df - ( i &gt;&gt; 1 );               // what the fuck?</tspan><tspan
         sodipodi:role="line"
         style="font-size:1.76389px;fill:#000000;stroke:none;stroke-width:0.4"
         x="9.6167698"
         y="41.969723"
         id="tspan17">  y  = * ( float * ) &amp;i;</tspan><tspan
         sodipodi:role="line"
         style="font-size:1.76389px;fill:#000000;stroke:none;stroke-width:0.4"
         x="9.6167698"
         y="43.733616"
         id="tspan18">  y  = y * ( threehalfs - ( x2 * y * y ) );   // 1st iteration</tspan><tspan
         sodipodi:role="line"
         style="font-size:1.76389px;fill:#000000;stroke:none;stroke-width:0.4"
         x="9.6167698"
         y="45.497505"
         id="tspan19">  // y  = y * ( threehalfs - ( x2 * y * y ) );   // 2nd iteration, this can be removed</tspan><tspan
         sodipodi:role="line"
         style="font-size:1.76389px;fill:#000000;stroke:none;stroke-width:0.4"
         x="9.6167698"
         y="47.261395"
         id="tspan20" /><tspan
         sodipodi:role="line"
         style="font-size:1.76389px;fill:#000000;stroke:none;stroke-width:0.4"
         x="9.6167698"
         y="49.025284"
         id="tspan21">  return y;</tspan><tspan
         sodipodi:role="line"
         style="font-size:1.76389px;fill:#000000;stroke:none;stroke-width:0.4"
         x="9.6167698"
         y="50.789173"
         id="tspan22">}</tspan></text>
    <text
       xml:space="preserve"
       style="font-style:normal;font-variant:normal;font-weight:normal;font-stretch:normal;font-size:1.76389px;line-height:1;font-family:'Liberation Mono';-inkscape-font-specification:'Liberation Mono';fill:#000000;stroke:none;stroke-width:0.4"
       x="58.655285"
       y="56.0802"
       id="text23"><tspan
         sodipodi:role="line"
         id="tspan23"
         style="stroke-width:0.4"
         x="58.655285"
         y="56.0802">60°</tspan></text>
    <path
       style="fill:none;stroke:#000000;stroke-width:0.4"
       d="m 53.048947,47.33363 c 0.306983,0.337788 0.560721,0.733054 0.920951,1.013364 0.396997,0.308923 0.879581,0.488368 1.320387,0.730713 1.375609,0.756288 2.77985,1.568892 4.251862,2.124464 2.239622,0.845288 4.60724,1.346822 6.860225,2.164006 0.299456,0.108614 0.316908,0.331129 0.584148,0.463786 0.145079,0.07202 0.314269,0.07857 0.471405,0.11785 0.196419,0.07857 0.404328,0.132967 0.589256,0.235704 0.171699,0.09539 0.300863,0.256101 0.471403,0.353553 0.10786,0.06163 0.261617,0.03431 0.353555,0.11785 0.03718,0.03379 -0.06209,0.08324 -0.106588,0.10658 -0.407752,0.213923 -0.811956,0.440968 -1.243451,0.601707 -0.899282,0.335002 -1.815439,0.626711 -2.740412,0.882367 -1.518004,0.419563 -3.074212,0.696053 -4.584612,1.142206 -1.081619,0.319498 -4.598472,1.578481 -5.960174,2.245792 -0.804478,0.394239 -1.67432,1.029004 -2.268675,1.722421 -0.09218,0.10754 -0.122391,0.268568 -0.235704,0.353552 -0.06285,0.04714 -0.157133,0 -0.235701,0"
       id="path23" />
    <path
       style="fill:none;stroke:#000000;stroke-width:0.4"
       d="m 63.061603,52.09695 c -0.03331,0.215924 -0.108085,0.729969 -0.160732,0.987248 -0.10302,0.503438 -0.277696,1.150633 -0.18679,1.696077 0.04262,0.255719 0.14455,0.509029 0.176779,0.766032 0.0097,0.07747 -0.01289,0.157215 0,0.234217 0.02945,0.175969 0.171537,0.31116 0.234963,0.469929 0.08527,0.213439 0.07064,0.418629 0.232918,0.580906"
       id="path24" />
    <path
       style="fill:none;stroke:#000000;stroke-width:0.4"
       d="m 47.269677,13.805735 c 0.939647,-0.191663 0.180422,-8e-5 1.640861,-0.634704 0.478137,-0.207772 0.979244,-0.364233 1.444797,-0.598847 1.12005,-0.564442 2.197836,-1.209314 3.287279,-1.83078 0.30204,-0.172297 0.587753,-0.371856 0.885513,-0.551447 0.05369,-0.03239 0.10559,-0.08195 0.168259,-0.08413 0.02685,-9.26e-4 0.363789,1.377919 0.372022,1.445251 0.03982,0.325528 0,0.655908 0,0.983861 0,0.748829 0,1.497657 0,2.246486 0,0.464611 0.07297,0.934988 0,1.393834 -0.08581,0.539609 -0.410601,0.885222 -0.666665,1.333333 -0.04358,0.07627 -0.02122,0.187887 -0.08333,0.250001 -0.163179,0.163178 -0.621612,0.201953 -0.833334,0.166666 -0.431544,-0.07192 -0.668862,-0.401784 -1.004491,-0.670283 -0.259517,-0.207609 -0.94425,-0.747898 -1.105027,-0.920898 -0.111786,-0.120287 -0.147018,-0.29707 -0.252177,-0.423193 -0.208018,-0.249489 -1.588392,-1.655464 -1.938999,-1.772333 -0.0527,-0.01757 -0.113961,0.01757 -0.166666,0 -0.195003,-0.065 -0.350634,-0.420326 -0.554667,-0.471334 -0.107461,-0.02686 -0.233228,0.04954 -0.332301,0 -0.136343,-0.06817 -0.0869,-0.0823 -0.249177,-0.0823"
       id="path25" />
    <path
       style="fill:none;stroke:#000000;stroke-width:0.4"
       d="m 54.762526,9.8314514 c 1.070441,-0.3263749 1.909035,-0.9791448 3.024466,-1.2710165 1.834729,-0.4800883 3.06751,-0.5815597 4.911312,-0.6451214 2.335128,-0.080499 4.143385,-0.2368097 6.022364,1.4376985 0.486478,0.4335417 0.753586,1.06501 1.171442,1.565028 0.475509,0.569009 1.058064,1.0465 1.505273,1.63801 1.029152,1.361224 1.768837,3.142979 1.641155,4.87583 -0.05178,0.70273 -0.864632,1.557012 -1.248582,1.955815 -0.780656,0.810857 -1.269397,1.082656 -2.181979,1.722382 -0.402812,0.282373 -0.780698,0.603736 -1.207146,0.848958 -0.409726,0.235608 -0.87562,0.361014 -1.290561,0.587311 -0.453434,0.24729 -0.839782,0.68991 -1.287309,0.950912 -0.878178,0.512161 -2.010698,0.588388 -2.829186,1.021815 -0.79918,0.423202 -1.315922,1.10561 -1.804882,1.836558 -0.121065,0.180979 -0.304837,0.332834 -0.364043,0.542368 -0.06762,0.239295 0,0.497329 0,0.745993 0,1.010965 0.234085,1.463511 0.601469,2.393524 0.201941,0.511199 0.113197,0.517601 0.339614,0.970438 0.10554,0.211077 0.304221,0.384514 0.416669,0.583333 0.142864,0.252605 -1.146323,1.362225 -1.308833,1.510056 -1.645846,1.497177 1.020887,-0.717362 -1.762427,1.64175 -0.304368,0.25798 -0.638995,0.478719 -0.943975,0.735981 -0.172955,0.145897 -0.304993,0.33877 -0.48795,0.471908 -0.788413,0.573733 -0.225168,-0.01712 -0.945525,0.432665 -0.09996,0.06242 -0.141679,0.203576 -0.25,0.25 -0.210915,0.09039 -1.52682,0.01699 -1.764681,0 -1.323321,-0.09444 -2.36225,-0.965682 -3.321322,-1.809022 -0.260723,-0.229259 -0.465773,-0.51911 -0.736486,-0.736481 -0.256255,-0.205756 -0.566672,-0.334547 -0.834525,-0.524957 -0.603383,-0.428935 -1.063377,-1.009994 -1.604547,-1.506551 -0.21648,-0.198633 -0.468731,-0.359206 -0.667634,-0.575435 -0.700183,-0.761171 -1.232329,-1.67455 -1.854552,-2.49174 -0.233712,-0.306943 -0.538771,-0.55636 -0.762743,-0.870479 -0.471636,-0.661469 -0.841735,-1.391999 -1.319126,-2.049326 -0.27364,-0.376779 -0.639691,-0.678565 -0.927756,-1.044434 -0.592211,-0.752162 -1.151723,-1.533648 -1.645787,-2.353627 -0.219319,-0.363997 -0.373828,-0.763456 -0.572485,-1.13913 -0.39134,-0.740054 -0.78055,-1.422426 -1.061497,-2.216771 -0.538422,-1.522324 -1.285299,-4.057806 -2.630951,-5.063822 -1.295866,-0.968795 -3.168626,-0.581537 -4.630229,-0.526357 -0.525201,0.01983 -1.052928,-0.04317 -1.576729,0 -0.308266,0.02541 -1.202542,0.196141 -1.63557,0.304397 -0.06026,0.01506 -0.105177,0.07455 -0.166666,0.08333 -0.137493,0.01964 -0.280016,-0.02485 -0.416666,0 -0.313536,0.05701 -0.620257,0.149773 -0.922761,0.25 -0.30408,0.100748 -0.312023,0.143829 -0.503049,0.334854"
       id="path26" />
    <path
       style="fill:#000000;stroke:#000000;stroke-width:0.4"
       d="m 23.588074,10.537664 c 2.167277,1.698391 0.248821,0.119356 2.059989,1.807408 0.181677,0.169327 0.405255,0.292695 0.574321,0.474615 0.125948,0.135524 0.656221,1.181116 0.752215,1.421102 0.05158,0.128955 -0.01963,0.279173 0,0.416666 0.01998,0.13973 0.202247,0.727517 0.08333,0.894531 -0.452234,0.635164 -1.36952,0.636495 -1.992447,0.992452 -0.290369,0.165926 -0.530924,0.43213 -0.833333,0.583334 -0.133795,0.0669 -0.282871,0.09977 -0.416667,0.166667 -0.03514,0.01757 -0.04424,0.07951 -0.08333,0.08333 -0.03213,0.0031 -0.05091,-0.0414 -0.06848,-0.06848 -0.08846,-0.136373 -0.166744,-0.279095 -0.248218,-0.419754 -0.125171,-0.216101 -0.298918,-0.411603 -0.371701,-0.650497 -0.203416,-0.66766 -0.189308,-1.926354 -0.189308,-2.666097 0,-0.273165 -0.08979,-0.979739 0,-1.246872 0.01252,-0.03724 0.06568,-0.04824 0.08333,-0.08333 0.02911,-0.05785 -10e-4,-0.386802 0,-0.39178 0.02957,-0.146168 0.129333,-0.270958 0.165609,-0.415609 0.03062,-0.122087 0.01007,-0.30045 0.0823,-0.403432 0.121998,-0.173924 0.268255,-0.329502 0.402383,-0.494252 z"
       id="path27" />
    <path
       style="fill:none;stroke:#000000;stroke-width:0.4"
       d="m 23.388546,10.900577 c -0.205048,-0.05965 -0.995161,-0.295562 -1.141026,-0.306725 -0.854568,-0.0654 -1.712995,-0.06753 -2.569983,-0.07919 -1.569573,-0.02136 -5.337903,-0.0016 -6.833333,0.08333 -0.651281,0.03701 -3.6817079,0.326857 -5.0081223,0.452635"
       id="path28" />
    <path
       style="fill:none;stroke:#000000;stroke-width:0.4"
       d="m 23.05535,16.988394 c -1.80172,0.04559 -3.545889,-0.422763 -5.340176,-0.456008 -0.910385,-0.01687 -1.821082,0 -2.731623,0 -0.888081,0 -2.514895,-0.143936 -3.340059,0.133939 -0.132003,0.04445 -0.305932,0.03125 -0.444873,0.0545 -0.07857,0.01964 -0.157134,0.03928 -0.235702,0.05893 -0.01964,0.01964 -0.03257,0.05014 -0.05892,0.05893 -0.03727,0.01242 -0.08272,-0.01757 -0.117851,0 -0.117852,0.05893 -0.08839,0.117852 -0.176777,0.176777 -0.07308,0.04872 -0.157109,0.07856 -0.235663,0.117833"
       id="path29" />
    <path
       style="fill:none;stroke:#000000;stroke-width:0.4"
       d="m 9.5517463,15.657818 c -0.094155,0.500286 -0.067068,0.151923 0.080447,0.880014 0.068115,0.336192 0.052279,0.697619 0.1915943,1.011078 0.039887,0.08975 0.1290823,0.149852 0.1767774,0.235702 0.05137,0.09246 0.0672,0.201769 0.117851,0.294628 0.06782,0.124345 0.181503,0.222694 0.235702,0.353554 0.04625,0.111675 0.02091,0.243064 0.05893,0.357804 0.04169,0.125825 0.135925,0.229925 0.177842,0.355675"
       id="path30" />
    <path
       style="fill:none;stroke:#000000;stroke-width:0.4"
       d="M 8.0042318,11.041636 C 7.0374877,9.6309179 7.9394015,11.086168 7.5379944,10.149551 7.4985416,10.057495 7.4001068,9.9954817 7.3713276,9.8995512 7.135846,9.1146129 7.2268756,7.7934274 7.7132491,7.1252034 8.3753615,6.2155336 9.5966422,5.8046807 10.51356,5.245501 11.21168,4.8197544 11.918065,4.2300141 12.688011,3.9082691 13.03802,3.7620074 13.415183,3.6918984 13.778732,3.5835875 15.503485,3.0697379 17.246929,2.544571 19.043978,2.3379593 c 0.868818,-0.09989 1.747458,-0.079249 2.619881,-0.1400859 1.204181,-0.083971 2.408523,-0.1712171 3.609337,-0.2942962 0.703911,-0.072148 1.397481,-0.2336101 2.102736,-0.2911708 0.789916,-0.064471 1.585089,0 2.377633,0 0.36885,0 1.76439,-0.1072182 2.139654,0 0.0963,0.027514 0.156223,0.1315002 0.249999,0.1666666 0.298815,0.112056 0.622864,0.1452839 0.923711,0.2517624 1.537097,0.5440211 3.15223,1.0130558 4.804836,0.8616054 0.691475,-0.063369 1.371981,-0.2680027 2.066126,-0.3446961 1.354793,-0.1496859 0.945594,-0.072055 2.557311,-0.2210515 1.69368,-0.1565739 3.412572,-0.4002421 5.11497,-0.4817022 1.138362,-0.054471 2.284701,0.055738 3.422994,0 1.374569,-0.067307 1.031428,-0.1943002 2.615962,-0.3479843 0.646472,-0.062701 1.299009,0 1.948513,0 1.279507,0 2.515584,-0.089892 3.634719,0.6301778 1.029168,0.6621823 0.339598,0.341515 1.471274,0.9814656 0.667102,0.3772395 1.25472,0.6694647 1.621443,1.4045869 0.290616,0.5825594 0.632222,1.7287838 0.774409,2.3355382 0.205663,0.877625 0.0046,0.3121279 0.0851,1.1100284 0.03176,0.314711 0.158816,0.4424953 0.251526,0.751526 0.196382,0.6546037 0.155922,1.7153674 -0.01521,2.3410874 -0.05708,0.208701 -0.204015,0.382148 -0.290283,0.580571 -0.103158,0.237277 -0.149405,0.500064 -0.277317,0.724966 -0.474856,0.834918 -1.182021,1.325291 -1.876872,1.948196 -0.191313,0.171503 -0.30439,0.420621 -0.501769,0.585103 -0.219705,0.183087 -0.488659,0.300516 -0.750002,0.416667 -0.766471,0.340654 -1.607851,0.315565 -2.416667,0.416667 -0.382754,0.04784 -0.719949,0.229509 -1.083334,0.333333 -0.225996,0.06457 -0.555064,0 -0.794665,0"
       id="path31" />
    <path
       style="fill:none;stroke:#000000;stroke-width:0.4"
       d="m 47.761016,13.04626 c -1.730502,-0.167951 -2.687105,0.387557 -3.812148,1.619015 -0.535435,0.586079 -1.29976,1.28008 -1.439788,2.115003 -0.196014,1.168725 -0.06444,2.511961 0.166666,3.664582 0.121983,0.608381 -0.441555,1.812572 -0.248952,2.294077 0.02918,0.07295 0.13153,0.09639 0.166667,0.166667 0.05122,0.102439 0.03211,0.230894 0.08333,0.333333 0.115697,0.231395 0.372901,0.36646 0.506759,0.587845 0.0777,0.128517 0.09455,0.286979 0.16747,0.418269 0.262591,0.47276 0.734878,0.987902 1.166667,1.333333 0.380794,0.304635 0.970307,0.384952 1.416667,0.583333 0.227036,0.100906 0.434033,0.246096 0.666665,0.333335 0.107238,0.04021 0.228063,0.03822 0.333333,0.08333 0.19054,0.08166 0.412594,0.331295 0.583335,0.416666 0.141488,0.07074 0.754337,0.145423 0.839446,0.166666 0.506714,0.126471 0.984001,0.297622 1.5133,0.33777 0.49553,0.03758 0.991709,0.0661 1.487585,0.09877 0.202957,0.01336 0.408694,-0.02775 0.61019,0 0.254797,0.03509 0.494165,0.149307 0.74857,0.187145 0.468948,0.06975 1.137002,0 1.59611,0 1.323877,0 2.712683,0.07926 3.952494,-0.416668 0.326234,-0.130493 0.692853,-0.162695 1,-0.333333 0.103021,-0.05724 0.154102,-0.181501 0.25,-0.249999 0.101087,-0.0722 0.222223,-0.111112 0.333332,-0.166667 0.138891,-0.08333 0.286097,-0.154159 0.416669,-0.250001 0.807961,-0.593054 1.57095,-1.2113 2.333374,-1.870188 2.793841,-2.414441 -1.481945,1.230279 1.50509,-1.102681 0.150622,-0.117641 0.864235,-0.891301 1.049893,-1.04983 0.218043,-0.186184 0.474935,-0.324595 0.687128,-0.517421 0.300524,-0.273096 0.506325,-0.664704 0.83757,-0.921559 0.959221,-0.74381 0.0751,0.09679 1.066009,-0.802287 0.153591,-0.139358 0.278239,-0.310093 0.439973,-0.439911 0.13103,-0.105174 0.299098,-0.156954 0.43189,-0.259898 0.124185,-0.09627 0.202589,-0.246171 0.333333,-0.333333 0.124465,-0.08298 0.285903,-0.09402 0.416666,-0.166667 0.113273,-0.08495 0.434236,-0.335307 0.583334,-0.416667 0.219396,-0.119719 0.45365,-0.211342 0.670492,-0.335627 0.32326,-0.18528 0.638069,-0.385953 0.943644,-0.599146 0.147415,-0.10285 0.263837,-0.249776 0.421082,-0.336858 0.286525,-0.158681 0.617527,-0.228621 0.89984,-0.394679 0.204938,-0.120547 0.35212,-0.321776 0.547801,-0.456836 0.209264,-0.144435 0.453065,-0.233978 0.662331,-0.378407 0.347044,-0.239518 0.679866,-0.504146 0.978059,-0.802287 0.09862,-0.0986 0.152228,-0.236203 0.250772,-0.334877 0.09815,-0.09827 0.235125,-0.151791 0.333336,-0.25 0.334787,-0.334789 0.620694,-1.716014 0.670205,-2.260643 0.06758,-0.743412 -0.07427,-1.507304 0,-2.25 0.06511,-0.6511391 0.427805,-1.1294063 0.751557,-1.6689938 0.06421,-0.1070189 0.07927,-0.2465546 0.167439,-0.3348874 0.06206,-0.062171 0.181409,-0.028459 0.250002,-0.083333 0.07821,-0.062566 0.08846,-0.1874343 0.166666,-0.25 0.06859,-0.054874 0.171432,-0.04405 0.25,-0.083334 0.385728,-0.192864 0.134853,-0.1419434 0.499999,-0.4166666 0.185878,-0.1398482 0.528277,-0.1212741 0.744762,-0.1645711 0.12065,-0.02413 0.296016,-0.1425366 0.416666,-0.1666666 0.28335,-0.05667 0.851183,-0.00262 1.093893,0.085091 0.152329,0.05505 0.277778,0.1666666 0.416666,0.2500001 0.17684,0.08842 0.344226,0.1990373 0.530519,0.2652614 0.238048,0.084623 0.495144,0.1055772 0.735097,0.1846464 0.697664,0.2298943 1.45614,0.5561023 2.02002,1.0394262 0.364955,0.3128195 0.448714,0.6869795 0.668975,1.0871787 0.373359,0.6783737 0.296251,0.3308977 0.601959,0.9423137 0.285784,0.57157 0.07435,0.247833 0.249999,0.833334 0.155162,0.517207 0.400156,0.996261 0.583335,1.5 0.06911,0.19005 0.07623,0.402457 0.166666,0.583333 0.03896,0.07793 0.321321,0.404654 0.416666,0.5"
       id="path32" />
    <path
       style="fill:none;stroke:#000000;stroke-width:0.4"
       d="m 85.379659,15.434728 c 0.691981,-1.088789 1.976406,-1.587748 3.023354,-2.233371 0.420053,-0.259033 0.8273,-0.53875 1.229866,-0.824203 0.229317,-0.219453 0.118994,-0.135401 0.318137,-0.268163"
       id="path33" />
    <path
       style="fill:none;stroke:#000000;stroke-width:0.4"
       d="m 12.282045,54.287525 c -0.552531,0 -0.912592,0.01267 -1.508075,-0.0739 -0.0018,-2.65e-4 -0.71342,-0.238131 -0.729826,-0.243277 C 9.1373303,53.685995 8.2118596,53.328127 7.3984204,52.826488 7.1295119,52.660655 6.9062919,52.429756 6.650655,52.244116 6.4972067,52.132684 6.2911891,52.087242 6.1678205,51.943216 5.9544164,51.694077 5.8373544,51.376331 5.6805123,51.088213 5.4527,50.669724 5.4894207,49.903625 5.8683194,49.564504 c 0.080018,-0.07162 0.2004851,-0.07717 0.2992278,-0.119386 0.040385,-0.01725 0.075173,-0.0693 0.1178513,-0.05893 0.2393817,0.05817 0.7068674,1.349161 -0.077247,1.569074 C 5.4124907,51.17842 5.134629,51.115978 4.3746226,50.935609 3.1158846,50.636878 2.635084,50.478015 1.6696679,49.723272 1.2660838,49.407757 0.90673141,49.089272 0.71259149,48.603923 0.67539515,48.510933 0.677957,48.406459 0.65366592,48.309297 0.61778168,48.16576 0.5546894,48.028611 0.53220386,47.882375 0.44773852,47.333053 0.57324585,46.655497 0.73473531,46.130373 0.85212165,45.748662 1.0491549,45.308956 1.2288699,44.947845 1.2671835,44.870859 1.3856168,44.835238 1.4204068,44.756305 1.4670907,44.650382 1.39198,44.381991 1.3622149,44.291575 1.288098,44.06643 0.97033637,43.983097 0.78326331,43.888763 0.68940547,43.841434 0.63908074,43.708317 0.54864722,43.654146 0.40128131,43.565876 0.23742643,43.463784 0.07211404,43.38113"
       id="path34" />
    <path
       style="fill:none;stroke:#000000;stroke-width:0.4"
       d="M 8.0636527,45.306181 C 6.6286892,44.24813 5.4735481,42.951984 4.5813331,41.417822 4.4104864,41.124049 4.198186,40.85069 4.0691368,40.536307 3.8545465,40.013535 3.918078,39.393645 4.0045933,38.861256 4.1712268,37.835845 4.364928,37.44432 4.7480682,36.447412 5.1456036,35.413045 5.2961859,34.971791 4.8722242,33.936275 4.6068609,33.288131 3.7938818,32.941609 3.1916192,32.693961 2.7917103,32.52952 2.2044111,32.475447 1.9436265,32.062253 1.6248858,31.557229 1.6161091,31.334432 1.4169541,30.785615 1.280776,30.410345 1.0772137,30.055968 0.9916607,29.666028 0.86995263,29.111297 0.84853713,28.538918 0.7998829,27.973081 0.65644714,26.304959 0.69371688,26.02814 0.69371688,24.331408 c 0,-1.415542 -0.002072,-2.859356 0.31642642,-4.247638 0.074508,-0.32477 0.092181,-0.672977 0.2447763,-0.96919 0.1151378,-0.223502 0.3363945,-0.376393 0.5306358,-0.536018 2.0307967,-1.668888 0.6064504,-0.42055 2.4341897,-1.64279 0.3811537,-0.254883 0.7161987,-0.57495 1.0993805,-0.826775 0.2997168,-0.196971 0.654417,-0.304639 0.9440534,-0.516155 0.2530507,-0.184798 0.4318648,-0.455442 0.6681708,-0.66122 0.2692697,-0.234484 0.5891223,-0.386928 0.8419838,-0.639789"
       id="path35" />
    <path
       style="fill:none;stroke:#000000;stroke-width:0.4"
       d="m 39.473764,20.707499 c -3.664776,1.278421 -6.595234,3.852141 -9.524728,6.294275 -6.626865,5.524402 -2.867876,2.57806 -8.720164,7.781271 -3.027262,2.691509 -6.911963,5.183455 -9.067221,8.729681"
       id="path36" />
    <path
       style="fill:none;stroke:#000000;stroke-width:0.4"
       d="m 49.05943,41.458761 c -0.218562,0.06803 -0.453829,0.09614 -0.655685,0.204081 -1.312783,0.701968 -2.990575,1.976088 -4.154892,2.753971 -1.796116,1.199988 -4.793356,3.113209 -6.619193,4.055456 -1.082857,0.558821 -2.232424,0.977615 -3.348548,1.466623 -0.927187,0.406228 -1.857377,0.805672 -2.781387,1.219078 -0.480695,0.215067 -0.370314,0.129529 -0.599416,0.358632"
       id="path37" />
    <path
       style="fill:none;stroke:#000000;stroke-width:0.4"
       d="m 46.327115,47.015466 c -0.232148,0.08084 -0.471114,0.144269 -0.696442,0.242535 -2.457487,1.071724 -2.715876,1.374545 -5.490228,2.459588 -1.743456,0.681863 -3.529055,1.251469 -5.279731,1.91457 -4.503007,1.705599 -2.556293,0.847333 -5.771296,2.753865 -0.639796,0.379407 -0.312335,0.07663 -0.591735,0.356034"
       id="path38" />
    <path
       style="fill:none;stroke:#000000;stroke-width:0.4"
       d="m 30.581264,45.937516 c 0.04331,0.256905 0.05996,0.519758 0.129947,0.770713 0.05276,0.189198 0.225346,0.322596 0.353552,0.471403 0.915969,1.063146 1.889755,2.076323 2.787243,3.155113 0.695248,0.835697 1.298019,1.745245 1.988253,2.585088 2.847269,3.169499 0.45629,0.42422 2.777403,3.292229 0.565351,0.698556 1.201169,1.333937 1.70044,2.082842"
       id="path39" />
    <path
       style="fill:none;stroke:#000000;stroke-width:0.4"
       d="m 42.218853,40.106457 c -1.424321,2.971763 -1.000032,6.51847 -1.000032,9.718214 0,2.714122 0,5.428245 0,8.142367"
       id="path40" />
    <text
       xml:space="preserve"
       style="font-style:normal;font-variant:normal;font-weight:normal;font-stretch:normal;font-size:1.76389px;line-height:1;font-family:'Liberation Mono';-inkscape-font-specification:'Liberation Mono';fill:none;stroke:#000000;stroke-width:0.4"
       x="70.51545"
       y="59.788868"
       id="text40"><tspan
         sodipodi:role="line"
         id="tspan40"
         style="fill:#000000;stroke:none;stroke-width:0.4"
         x="70.51545"
         y="59.788868">/p/ /t/ /k/</tspan><tspan
         sodipodi:role="line"
         style="fill:#000000;stroke:none;stroke-width:0.4"
         x="70.51545"
         y="61.552757"
         id="tspan41">/f/ /s/ /x/</tspan><tspan
         sodipodi:role="line"
         style="fill:#000000;stroke:none;stroke-width:0.4"
         x="70.51545"
         y="63.316647"
         id="tspan42">/a/ /i/ /u/</tspan></text>
  </g>
</svg>
